<svg width="73" height="72" viewBox="0 0 73 72" fill="none" xmlns="http://www.w3.org/2000/svg">
<rect x="0.828125" width="71.3441" height="71.1541" rx="35" fill="#F26323" fill-opacity="0.1"/>
<path d="M33.9352 23.4441L21.2302 44.6541C20.9682 45.1078 20.8296 45.6221 20.8281 46.1459C20.8267 46.6697 20.9624 47.1848 21.2218 47.6399C21.4812 48.095 21.8552 48.4742 22.3067 48.7399C22.7582 49.0055 23.2714 49.1484 23.7952 49.1541H49.2052C49.729 49.1484 50.2421 49.0055 50.6936 48.7399C51.1451 48.4742 51.5191 48.095 51.7785 47.6399C52.0379 47.1848 52.1736 46.6697 52.1722 46.1459C52.1707 45.6221 52.0321 45.1078 51.7702 44.6541L39.0652 23.4441C38.7977 23.0033 38.4212 22.6388 37.9719 22.3858C37.5227 22.1329 37.0158 22 36.5002 22C35.9846 22 35.4776 22.1329 35.0284 22.3858C34.5791 22.6388 34.2026 23.0033 33.9352 23.4441Z" stroke="#F26323" stroke-width="3" stroke-linecap="round" stroke-linejoin="round"/>
<path d="M36.5 29.5725L36.5 38.5419" stroke="#F26323" stroke-width="3" stroke-linecap="round" stroke-linejoin="round"/>
<path d="M36.5 43.4009H36.5208" stroke="#F26323" stroke-width="3" stroke-linecap="round" stroke-linejoin="round"/>
</svg>
