<svg width="29" height="25" viewBox="0 0 29 25" fill="none" xmlns="http://www.w3.org/2000/svg">
<g clip-path="url(#clip0_289_33)">
<path d="M12.8331 3.86436L2.95894 18.0044C2.75535 18.3068 2.64763 18.6497 2.64649 18.9989C2.64535 19.3481 2.75083 19.6915 2.95244 19.9949C3.15405 20.2983 3.44475 20.5511 3.79563 20.7282C4.14651 20.9053 4.54534 21.0005 4.95243 21.0044H24.7008C25.1079 21.0005 25.5068 20.9053 25.8576 20.7282C26.2085 20.5511 26.4992 20.2983 26.7008 19.9949C26.9024 19.6915 27.0079 19.3481 27.0068 18.9989C27.0056 18.6497 26.8979 18.3068 26.6943 18.0044L16.8201 3.86436C16.6123 3.57046 16.3197 3.32747 15.9705 3.15884C15.6213 2.9902 15.2274 2.90161 14.8266 2.90161C14.4259 2.90161 14.032 2.9902 13.6828 3.15884C13.3336 3.32747 13.041 3.57046 12.8331 3.86436Z" stroke="#FF6400" stroke-width="2" stroke-linecap="round" stroke-linejoin="round"/>
<path d="M14.8281 9.00439V13.0044" stroke="#FF6400" stroke-width="2" stroke-linecap="round" stroke-linejoin="round"/>
<path d="M14.8281 17.0044H14.8391" stroke="#FF6400" stroke-width="2" stroke-linecap="round" stroke-linejoin="round"/>
</g>
<defs>
<clipPath id="clip0_289_33">
<rect width="27.9789" height="24" fill="white" transform="translate(0.837891 0.00439453)"/>
</clipPath>
</defs>
</svg>
