<svg width="25" height="25" viewBox="0 0 25 25" fill="none" xmlns="http://www.w3.org/2000/svg">
<g clip-path="url(#clip0_140_8550)">
<path d="M10.8894 3.95591L2.41939 18.0959C2.24475 18.3983 2.15235 18.7412 2.15138 19.0904C2.1504 19.4396 2.24088 19.783 2.41381 20.0864C2.58675 20.3898 2.83611 20.6427 3.13709 20.8198C3.43808 20.9969 3.78019 21.0921 4.12939 21.0959H21.0694C21.4186 21.0921 21.7607 20.9969 22.0617 20.8198C22.3627 20.6427 22.612 20.3898 22.785 20.0864C22.9579 19.783 23.0484 19.4396 23.0474 19.0904C23.0464 18.7412 22.954 18.3983 22.7794 18.0959L14.3094 3.95591C14.1311 3.66201 13.8801 3.41903 13.5806 3.25039C13.2811 3.08176 12.9431 2.99316 12.5994 2.99316C12.2557 2.99316 11.9177 3.08176 11.6182 3.25039C11.3187 3.41903 11.0677 3.66201 10.8894 3.95591Z" stroke="#BF2E23" stroke-width="2" stroke-linecap="round" stroke-linejoin="round"/>
<path d="M12.5996 9.0957V13.0957" stroke="#BF2E23" stroke-width="2" stroke-linecap="round" stroke-linejoin="round"/>
<path d="M12.5996 17.0957H12.6096" stroke="#BF2E23" stroke-width="2" stroke-linecap="round" stroke-linejoin="round"/>
</g>
<defs>
<clipPath id="clip0_140_8550">
<rect width="24" height="24" fill="white" transform="translate(0.599609 0.0957031)"/>
</clipPath>
</defs>
</svg>
