<svg width="31" height="30" viewBox="0 0 31 30" fill="none" xmlns="http://www.w3.org/2000/svg">
<g clip-path="url(#clip0_4603_2295)">
<path d="M20.5 2.5L26.75 8.75V26.26C26.7497 26.589 26.6187 26.9044 26.386 27.1369C26.1533 27.3694 25.8377 27.5 25.5088 27.5H5.49125C5.16297 27.4977 4.84877 27.3664 4.61652 27.1344C4.38427 26.9023 4.25262 26.5883 4.25 26.26V3.74C4.25 3.055 4.80625 2.5 5.49125 2.5H20.5ZM14.25 8.75V21.25H16.75V8.75H14.25ZM19.25 13.75V21.25H21.75V13.75H19.25ZM9.25 16.25V21.25H11.75V16.25H9.25Z" fill="white"/>
</g>
<defs>
<clipPath id="clip0_4603_2295">
<rect width="30" height="30" fill="white" transform="translate(0.5)"/>
</clipPath>
</defs>
</svg>
