<svg width="36" height="36" viewBox="0 0 36 36" fill="none" xmlns="http://www.w3.org/2000/svg">
<circle cx="18" cy="18" r="18" fill="#0075BC"/>
<path d="M18.4064 7C18.5888 7.02836 18.7717 7.05414 18.9536 7.08508C21.0489 7.4388 22.813 9.14139 23.2357 11.2152C23.5406 12.71 23.2424 14.1038 22.5159 15.4196C21.9609 16.4246 21.2101 17.2563 20.1958 17.8137C18.5562 18.715 16.9471 18.6077 15.4124 17.5641C14.1852 16.7293 13.3931 15.5578 12.9414 14.1574C12.5472 12.9353 12.5095 11.7009 12.9843 10.4954C13.7393 8.57729 15.1505 7.43209 17.1869 7.06239C17.2995 7.04177 17.4122 7.02114 17.5243 7C17.8189 7 18.1124 7 18.4064 7Z" fill="white"/>
<path d="M22.9678 22.5971C22.9693 22.1924 23.298 21.8691 23.7062 21.8701C24.1108 21.8712 24.443 22.2042 24.4394 22.6049C24.4358 23.0153 24.1015 23.3438 23.6927 23.3391C23.2876 23.3345 22.9662 23.005 22.9678 22.5971Z" fill="white"/>
<path d="M13.4351 18.581C13.448 18.5784 13.4609 18.5753 13.4743 18.5728C13.4759 18.5769 13.4769 18.581 13.4785 18.5851C13.4681 18.5893 13.4583 18.5934 13.448 18.5975C13.4433 18.5918 13.4392 18.5867 13.4351 18.581Z" fill="white"/>
<path fill-rule="evenodd" clip-rule="evenodd" d="M27.5954 26.4768C27.7664 26.2721 27.8997 26.0473 27.9638 25.7854C27.9638 25.7854 28.0382 25.2811 27.9736 24.8773C27.9523 24.7529 27.9347 24.6273 27.9171 24.5018C27.8796 24.2347 27.8421 23.9676 27.769 23.7105C27.0291 21.104 25.3471 19.4138 22.7511 18.6269C22.7253 18.6191 22.697 18.6187 22.6646 18.6183C22.6482 18.6181 22.6308 18.6178 22.6121 18.6166C23.0347 18.908 23.3608 19.2591 23.6104 19.6819C23.8615 20.1078 24.0021 20.5693 24.0501 21.055C24.7994 21.2303 25.3745 21.9269 25.281 22.7916C25.2019 23.5233 24.5658 24.1395 23.8429 24.1849C23.0409 24.2354 22.3465 23.7425 22.1563 22.9953C21.9656 22.2456 22.3537 21.3335 23.3081 21.0566C23.3081 21.0528 23.3082 21.0489 23.3084 21.0449C23.3087 21.0352 23.309 21.0251 23.3076 21.0153C23.1644 20.0681 22.6513 19.3983 21.7868 18.9894C21.7129 18.9544 21.6752 18.9832 21.6267 19.0286C20.8763 19.731 20.1254 20.4329 19.3746 21.1348C18.9993 21.4856 18.624 21.8365 18.2488 22.1873L18.1067 22.3198C18.0705 22.2874 18.0437 22.2626 18.0168 22.2379L18.0163 22.2374C16.858 21.1547 15.6996 20.0721 14.5439 18.9874C14.4813 18.9286 14.4322 18.9152 14.3527 18.9492C13.4499 19.3323 12.9125 20.0031 12.7415 20.9668L12.7413 20.968C12.7129 21.128 12.6846 21.2878 12.8753 21.3768C12.8852 21.3809 12.8939 21.3907 12.8986 21.4C12.987 21.5742 13.1437 21.671 13.3 21.7676C13.3227 21.7817 13.3453 21.7957 13.3678 21.8099C13.379 21.817 13.3895 21.8255 13.3999 21.8339C13.4038 21.8371 13.4077 21.8403 13.4117 21.8434C13.8607 22.1925 14.1666 22.6488 14.3956 23.1598C14.4207 23.2165 14.4224 23.284 14.424 23.3512C14.4247 23.3806 14.4254 23.4099 14.4281 23.4382C14.43 23.4572 14.4298 23.4768 14.4297 23.4962C14.4295 23.5313 14.4292 23.566 14.4405 23.5965C14.6989 24.2921 14.7934 25.0083 14.7221 25.7462C14.6978 26.0009 14.6425 26.2479 14.4545 26.4392C14.254 26.6439 13.9817 26.7192 13.7202 26.7841C13.5603 26.8238 13.3849 26.8103 13.214 26.7972C13.185 26.795 13.1561 26.7928 13.1275 26.7908C12.8862 26.7748 12.7074 26.5701 12.7058 26.3345C12.7043 26.1076 12.8784 25.8926 13.1001 25.8777C13.3156 25.8632 13.5331 25.8679 13.7496 25.8766C13.7552 25.8768 13.7605 25.8771 13.7656 25.8773C13.8881 25.8826 13.8939 25.8828 13.9088 25.7472C13.9744 25.1486 13.9217 24.5623 13.7233 23.9915L13.7232 23.9911C13.687 23.8876 13.6529 23.7898 13.5528 23.7208C13.5094 23.691 13.4801 23.6395 13.4515 23.5892C13.4429 23.5741 13.4344 23.5592 13.4257 23.545C13.3918 23.4895 13.3599 23.4324 13.3281 23.3754C13.2614 23.2558 13.1948 23.1363 13.1094 23.0319C12.9771 22.8695 12.818 22.7225 12.6495 22.5973C12.4728 22.4663 12.2646 22.4689 12.0816 22.5952C11.9447 22.6901 11.8031 22.7953 11.7049 22.9267C11.6018 23.0644 11.513 23.2123 11.4241 23.3604C11.3718 23.4474 11.3195 23.5346 11.2642 23.6197C11.2294 23.6734 11.1868 23.722 11.1442 23.7706C11.1222 23.7957 11.1001 23.8208 11.0792 23.8466C11.07 23.8579 11.0601 23.8691 11.0501 23.8803C11.0219 23.9119 10.9935 23.9439 10.9805 23.9812C10.8601 24.3251 10.7748 24.6783 10.7681 25.0434C10.7646 25.2312 10.7768 25.4197 10.789 25.608C10.7929 25.6683 10.7968 25.7287 10.8002 25.789C10.8033 25.8447 10.8198 25.8988 10.8973 25.8952C11.1128 25.8854 11.3282 25.8761 11.5442 25.8704C11.598 25.8694 11.6548 25.8766 11.7065 25.8926C11.9153 25.9581 12.0543 26.1726 12.0248 26.3752C11.9891 26.6212 11.8093 26.7929 11.5634 26.7934C11.5539 26.7934 11.5445 26.7935 11.5351 26.7935C11.2551 26.7946 10.9809 26.7957 10.7004 26.6954C10.3144 26.5572 10.0679 26.3319 10.0059 25.9292C9.88916 25.1723 9.96667 24.4329 10.2162 23.7089C10.2358 23.6524 10.2424 23.5913 10.249 23.5301C10.2529 23.4942 10.2568 23.4583 10.2633 23.4233C10.2667 23.4045 10.2697 23.3855 10.2727 23.3665C10.283 23.3021 10.2933 23.2372 10.3196 23.1799C10.3935 23.0206 10.4751 22.8643 10.5661 22.7143C10.796 22.3343 11.073 21.994 11.4523 21.7511C11.5634 21.68 11.6662 21.6114 11.7334 21.4887C11.759 21.4415 11.8016 21.4041 11.8446 21.3664C11.8716 21.3426 11.8988 21.3187 11.922 21.2922C11.9519 21.2582 11.985 21.2128 11.9876 21.1705C12.0238 20.5724 12.2041 20.0233 12.5343 19.5221C12.7777 19.1529 13.0934 18.8564 13.4479 18.597C13.4432 18.5919 13.4391 18.5867 13.435 18.5811C12.6506 18.7672 11.9173 19.0771 11.2487 19.5246C9.43651 20.7374 8.36791 22.4214 8.06252 24.5819C8.05219 24.6548 8.04173 24.7277 8.03126 24.8005C8.0208 24.8733 8.01033 24.9462 8 25.0191V25.6791C8.00572 25.6955 8.01162 25.7119 8.01753 25.7283C8.03189 25.7682 8.04631 25.8082 8.05839 25.8488C8.16845 26.2164 8.39891 26.5021 8.67743 26.7537C9.13732 27.1693 9.67627 27.4575 10.2411 27.7009C11.2497 28.1351 12.3064 28.4052 13.3833 28.6043C14.5082 28.8121 15.644 28.9255 16.7859 28.9776C16.8113 28.9786 16.9446 28.992 16.9694 28.9998C17.6985 28.9992 18.3196 28.9992 19.0492 28.9992C19.1017 28.9949 19.1542 28.9902 19.2067 28.9854C19.3117 28.9759 19.4166 28.9664 19.522 28.9606C21.175 28.8698 22.8079 28.6496 24.4015 28.1856C25.2339 27.9432 26.0406 27.638 26.7764 27.1708C27.0812 26.9775 27.3623 26.7552 27.5954 26.4768ZM20.1032 24.8021C20.1033 24.9004 20.1033 24.9997 20.1033 25.1006C19.9467 25.1006 19.7933 25.1003 19.6416 25.1C19.493 25.0998 19.346 25.0995 19.1991 25.0995C19.0606 25.1001 19.0017 25.1563 19.0012 25.2908C18.9996 25.5693 18.9996 25.8482 19.0012 26.1267C19.0017 26.2581 19.0575 26.3144 19.1893 26.3149C19.3614 26.3158 19.5337 26.3158 19.706 26.3158C19.8094 26.3157 19.9127 26.3157 20.016 26.3159C20.0342 26.3159 20.0521 26.3179 20.0712 26.32C20.0813 26.3211 20.0918 26.3222 20.1028 26.3231C20.1028 26.41 20.1027 26.4961 20.1027 26.5816C20.1024 26.7937 20.1022 27.0025 20.1033 27.2115C20.1039 27.3626 20.1586 27.4157 20.309 27.4157C20.588 27.4162 20.8676 27.4168 21.1466 27.4157C21.2624 27.4152 21.3228 27.359 21.328 27.243C21.3313 27.1701 21.3307 27.0966 21.33 27.0232C21.3298 26.9938 21.3295 26.9645 21.3295 26.9352V26.3164C21.4081 26.3164 21.4857 26.3164 21.5626 26.3165C21.7901 26.3166 22.0118 26.3167 22.2338 26.3159C22.3749 26.3154 22.4312 26.2612 22.4317 26.1256C22.4333 25.8472 22.4333 25.5682 22.4317 25.2898C22.4312 25.1604 22.3733 25.1016 22.2436 25.1006C22.0683 25.0993 21.8928 25.0994 21.7174 25.0996C21.6172 25.0996 21.517 25.0997 21.4169 25.0995C21.3966 25.0995 21.3764 25.0976 21.3548 25.0956C21.3466 25.0949 21.3382 25.0941 21.3295 25.0934C21.3295 25.0014 21.3297 24.9102 21.3298 24.8195C21.3301 24.6095 21.3305 24.402 21.329 24.1946C21.3285 24.058 21.2696 24.0007 21.1347 24.0002C20.9559 23.9999 20.7772 24 20.5984 24.0001C20.509 24.0002 20.4196 24.0002 20.3302 24.0002C20.1524 24.0002 20.1033 24.0492 20.1033 24.2292C20.103 24.419 20.1031 24.6085 20.1032 24.8021Z" fill="white"/>
</svg>
