<svg width="26" height="26" viewBox="0 0 26 26" fill="none" xmlns="http://www.w3.org/2000/svg">
<path d="M13.0001 0C5.81959 0 0 5.82023 0 12.9998C0 20.1798 5.81981 26 13.0001 26C20.1794 26 26 20.1797 26 12.9998C26.0001 5.82023 20.1794 0 13.0001 0Z" fill="#0075BC"/>
<path d="M13.3386 3.83325C13.4906 3.85688 13.643 3.87837 13.7946 3.90415C15.5407 4.19892 17.0108 5.61774 17.3631 7.34594C17.6171 8.5916 17.3687 9.75305 16.7632 10.8496C16.3008 11.6871 15.6751 12.3802 14.8298 12.8446C13.4635 13.5957 12.1226 13.5064 10.8437 12.6367C9.82097 11.941 9.16085 10.9648 8.7845 9.79773C8.45595 8.77938 8.42451 7.75071 8.82024 6.7461C9.44936 5.14766 10.6253 4.19333 12.3224 3.88524C12.4162 3.86806 12.5101 3.85087 12.6036 3.83325C12.849 3.83325 13.0936 3.83325 13.3386 3.83325Z" fill="white"/>
<path d="M17.1397 16.8314C17.1409 16.4941 17.4148 16.2247 17.755 16.2256C18.0922 16.2264 18.369 16.504 18.366 16.8379C18.363 17.1799 18.0844 17.4536 17.7438 17.4498C17.4062 17.4459 17.1384 17.1713 17.1397 16.8314Z" fill="white"/>
<path d="M9.1958 13.4839C9.20657 13.4818 9.21733 13.4792 9.22853 13.4771C9.22982 13.4805 9.23068 13.4839 9.23197 13.4874C9.22336 13.4908 9.21518 13.4942 9.20657 13.4977C9.20269 13.4929 9.19925 13.4887 9.1958 13.4839Z" fill="white"/>
<path fill-rule="evenodd" clip-rule="evenodd" d="M20.9962 20.0642C21.1388 19.8936 21.2499 19.7062 21.3033 19.488C21.3033 19.488 21.3653 19.0677 21.3114 18.7313C21.2937 18.6275 21.279 18.5229 21.2643 18.4183C21.2331 18.1958 21.2018 17.9732 21.1409 17.7589C20.5243 15.5868 19.1227 14.1783 16.9593 13.5226C16.9378 13.516 16.9143 13.5157 16.8872 13.5154C16.8736 13.5152 16.8591 13.515 16.8435 13.514C17.1957 13.7568 17.4674 14.0494 17.6754 14.4018C17.8847 14.7567 18.0018 15.1412 18.0418 15.546C18.6662 15.6921 19.1455 16.2726 19.0675 16.9932C19.0017 17.6029 18.4716 18.1164 17.8692 18.1542C17.2009 18.1963 16.6221 17.7855 16.4637 17.1629C16.3048 16.5382 16.6282 15.778 17.4235 15.5473C17.4235 15.5441 17.4236 15.5409 17.4237 15.5375C17.424 15.5295 17.4243 15.5211 17.4231 15.5129C17.3038 14.7236 16.8762 14.1654 16.1558 13.8247C16.0942 13.7955 16.0628 13.8195 16.0223 13.8573C15.3969 14.4427 14.7711 15.0277 14.1453 15.6127C13.8327 15.905 13.52 16.1973 13.2074 16.4896L13.089 16.6C13.0589 16.573 13.0366 16.5524 13.0142 16.5318L13.0141 16.5317L13.0129 16.5306C12.0479 15.6286 11.0828 14.7267 10.12 13.823C10.0679 13.774 10.0269 13.7628 9.96063 13.7912C9.20836 14.1104 8.76053 14.6695 8.618 15.4725L8.61782 15.4735C8.5942 15.6068 8.5706 15.74 8.72953 15.8141C8.73771 15.8176 8.74503 15.8257 8.7489 15.8335C8.82262 15.9787 8.95315 16.0594 9.08342 16.1399C9.10231 16.1515 9.12119 16.1632 9.1399 16.1751C9.14927 16.181 9.15796 16.1881 9.16663 16.1951C9.16991 16.1978 9.17319 16.2004 9.1765 16.203C9.55069 16.4939 9.80561 16.8742 9.99637 17.3C10.0174 17.3473 10.0187 17.4035 10.0201 17.4595C10.0207 17.484 10.0213 17.5084 10.0235 17.532C10.025 17.5478 10.0249 17.5641 10.0248 17.5804C10.0246 17.6096 10.0244 17.6385 10.0338 17.6639C10.2491 18.2436 10.3279 18.8404 10.2685 19.4553C10.2483 19.6676 10.2022 19.8734 10.0455 20.0328C9.87839 20.2034 9.65146 20.2661 9.43357 20.3203C9.3003 20.3533 9.15413 20.3421 9.01174 20.3312C8.98758 20.3293 8.96353 20.3275 8.93966 20.3258C8.73857 20.3125 8.58958 20.1419 8.58829 19.9456C8.587 19.7565 8.73211 19.5773 8.91684 19.5649C9.0964 19.5528 9.27769 19.5567 9.45812 19.564C9.46274 19.5642 9.46718 19.5644 9.47145 19.5646C9.57348 19.569 9.57834 19.5692 9.59074 19.4562C9.64543 18.9573 9.60151 18.4687 9.43615 17.9931L9.43605 17.9928C9.40595 17.9065 9.3775 17.825 9.29405 17.7675C9.25791 17.7427 9.23351 17.6998 9.20964 17.6578C9.20252 17.6453 9.19545 17.6328 9.18812 17.621C9.15989 17.5747 9.13336 17.5272 9.10683 17.4796C9.05126 17.38 8.99572 17.2804 8.92459 17.1934C8.81436 17.0581 8.68173 16.9356 8.54135 16.8312C8.39408 16.7221 8.22055 16.7242 8.06811 16.8295C7.954 16.9085 7.83602 16.9962 7.7542 17.1058C7.66824 17.2205 7.59424 17.3437 7.52014 17.4671C7.47657 17.5397 7.43297 17.6123 7.38689 17.6833C7.35794 17.728 7.32244 17.7685 7.28693 17.809C7.26856 17.8299 7.2502 17.8508 7.23274 17.8723C7.22508 17.8818 7.21681 17.8911 7.2085 17.9004C7.18504 17.9267 7.1613 17.9534 7.15049 17.9845C7.05016 18.2711 6.97911 18.5654 6.97351 18.8696C6.97058 19.0262 6.98073 19.1832 6.99089 19.3402C6.99414 19.3905 6.99739 19.4407 7.00021 19.491C7.00279 19.5374 7.01657 19.5825 7.08116 19.5795C7.26073 19.5713 7.44029 19.5636 7.62028 19.5589C7.66507 19.558 7.71243 19.564 7.75549 19.5773C7.92946 19.6319 8.04529 19.8107 8.02075 19.9795C7.99104 20.1845 7.84118 20.3276 7.63622 20.328C7.62837 20.328 7.62054 20.3281 7.61271 20.3281C7.37932 20.329 7.15083 20.3299 6.9171 20.2464C6.59544 20.1312 6.39004 19.9434 6.33837 19.6078C6.24105 18.9771 6.30564 18.3609 6.51362 17.7576C6.52991 17.7105 6.53542 17.6596 6.54093 17.6086C6.54417 17.5787 6.5474 17.5488 6.55281 17.5196C6.55566 17.5039 6.55818 17.4881 6.5607 17.4722C6.56922 17.4186 6.57782 17.3645 6.59974 17.3168C6.66132 17.184 6.72936 17.0538 6.80514 16.9287C6.99676 16.6121 7.22757 16.3285 7.54363 16.1261C7.63622 16.0668 7.72191 16.0096 7.77789 15.9074C7.79928 15.8681 7.83477 15.8369 7.87055 15.8055C7.89309 15.7857 7.91575 15.7658 7.93506 15.7437C7.96003 15.7153 7.98759 15.6775 7.98974 15.6423C8.01989 15.1438 8.17017 14.6862 8.44533 14.2686C8.64814 13.9609 8.91124 13.7138 9.20664 13.4977C9.20276 13.4934 9.19932 13.4891 9.19587 13.4844C8.54221 13.6395 7.93118 13.8977 7.37398 14.2707C5.86384 15.2813 4.97334 16.6847 4.71885 18.4851C4.71024 18.5459 4.70152 18.6066 4.6928 18.6673C4.68408 18.728 4.67536 18.7886 4.66675 18.8494V19.3994C4.67152 19.4131 4.67643 19.4267 4.68136 19.4404C4.69333 19.4737 4.70534 19.507 4.71541 19.5408C4.80713 19.8472 4.99918 20.0852 5.23127 20.2949C5.61451 20.6412 6.06364 20.8814 6.53429 21.0842C7.37484 21.446 8.25543 21.6712 9.15281 21.8371C10.0902 22.0102 11.0367 22.1048 11.9884 22.1482C12.0095 22.149 12.1206 22.1602 12.1412 22.1666C12.7488 22.1662 13.2664 22.1662 13.8744 22.1662C13.9182 22.1626 13.9619 22.1587 14.0057 22.1547C14.0931 22.1468 14.1806 22.1388 14.2684 22.134C15.6459 22.0583 17.0067 21.8749 18.3347 21.4882C19.0284 21.2862 19.7005 21.0318 20.3137 20.6425C20.5678 20.4814 20.802 20.2962 20.9962 20.0642ZM14.7523 18.6684C14.7523 18.7503 14.7524 18.8331 14.7524 18.9171C14.6218 18.9171 14.494 18.9169 14.3675 18.9167C14.2438 18.9165 14.1213 18.9163 13.9988 18.9163C13.8834 18.9167 13.8343 18.9636 13.8339 19.0757C13.8326 19.3077 13.8326 19.5402 13.8339 19.7722C13.8343 19.8818 13.8808 19.9286 13.9906 19.9291C14.1341 19.9299 14.2777 19.9298 14.4213 19.9298C14.5074 19.9298 14.5935 19.9298 14.6796 19.9299C14.6947 19.9299 14.7097 19.9316 14.7255 19.9333C14.734 19.9342 14.7428 19.9352 14.7519 19.9359C14.7519 20.0083 14.7519 20.08 14.7518 20.1513C14.7516 20.328 14.7514 20.5021 14.7524 20.6763C14.7528 20.8022 14.7984 20.8464 14.9237 20.8464C15.1563 20.8469 15.3892 20.8473 15.6218 20.8464C15.7182 20.846 15.7686 20.7992 15.7729 20.7025C15.7757 20.6417 15.7751 20.5805 15.7746 20.5193C15.7744 20.4949 15.7742 20.4704 15.7742 20.446V19.9303C15.8396 19.9303 15.9043 19.9304 15.9684 19.9304C16.158 19.9305 16.3427 19.9306 16.5278 19.9299C16.6453 19.9295 16.6922 19.8844 16.6927 19.7714C16.694 19.5393 16.694 19.3069 16.6927 19.0748C16.6922 18.967 16.644 18.918 16.5359 18.9171C16.3899 18.916 16.2436 18.9162 16.0974 18.9163C16.0139 18.9164 15.9304 18.9164 15.847 18.9163C15.8301 18.9163 15.8133 18.9147 15.7953 18.913C15.7884 18.9124 15.7814 18.9117 15.7742 18.9111C15.7742 18.8345 15.7743 18.7585 15.7744 18.6829C15.7747 18.5079 15.775 18.335 15.7738 18.1622C15.7733 18.0483 15.7242 18.0006 15.6119 18.0002C15.4629 17.9999 15.3139 18 15.1649 18.0001C15.0904 18.0001 15.0159 18.0002 14.9414 18.0002C14.7933 18.0002 14.7524 18.041 14.7524 18.191C14.7521 18.3491 14.7522 18.5071 14.7523 18.6684Z" fill="white"/>
</svg>
