<svg width="24" height="24" viewBox="0 0 24 24" fill="none" xmlns="http://www.w3.org/2000/svg">
<path d="M12.4064 1C12.5888 1.02836 12.7717 1.05414 12.9536 1.08508C15.0489 1.4388 16.813 3.14139 17.2357 5.21523C17.5406 6.71002 17.2424 8.10375 16.5159 9.41963C15.9609 10.4246 15.2101 11.2563 14.1958 11.8137C12.5562 12.715 10.9471 12.6077 9.41244 11.5641C8.18521 10.7293 7.39307 9.55781 6.94145 8.15738C6.54718 6.93535 6.50946 5.70095 6.98434 4.49542C7.73928 2.57729 9.15046 1.43209 11.1869 1.06239C11.2995 1.04177 11.4122 1.02114 11.5243 1C11.8189 1 12.1124 1 12.4064 1Z" fill="white"/>
<path d="M16.9678 16.5971C16.9693 16.1924 17.298 15.8691 17.7062 15.8701C18.1108 15.8712 18.443 16.2042 18.4394 16.6049C18.4358 17.0153 18.1015 17.3438 17.6927 17.3391C17.2876 17.3345 16.9662 17.005 16.9678 16.5971Z" fill="white"/>
<path d="M7.43506 12.5815C7.44798 12.5789 7.4609 12.5758 7.47433 12.5732C7.47588 12.5774 7.47691 12.5815 7.47846 12.5856C7.46813 12.5897 7.45831 12.5939 7.44798 12.598C7.44333 12.5923 7.43919 12.5872 7.43506 12.5815Z" fill="white"/>
<path fill-rule="evenodd" clip-rule="evenodd" d="M21.5954 20.4768C21.7664 20.2721 21.8997 20.0473 21.9638 19.7854C21.9638 19.7854 22.0382 19.2811 21.9736 18.8773C21.9523 18.7529 21.9347 18.6273 21.9171 18.5018C21.8796 18.2347 21.8421 17.9676 21.769 17.7105C21.0291 15.104 19.3471 13.4138 16.7511 12.6269C16.7253 12.6191 16.697 12.6187 16.6646 12.6183C16.6482 12.6181 16.6308 12.6178 16.6121 12.6166C17.0347 12.908 17.3608 13.2591 17.6104 13.6819C17.8615 14.1078 18.0021 14.5693 18.0501 15.055C18.7994 15.2303 19.3745 15.9269 19.281 16.7916C19.2019 17.5233 18.5658 18.1395 17.8429 18.1849C17.0409 18.2354 16.3465 17.7425 16.1563 16.9953C15.9656 16.2456 16.3537 15.3335 17.3081 15.0566C17.3081 15.0528 17.3082 15.0489 17.3084 15.0449C17.3087 15.0352 17.309 15.0251 17.3076 15.0153C17.1644 14.0681 16.6513 13.3983 15.7868 12.9894C15.7129 12.9544 15.6752 12.9832 15.6267 13.0286C14.8763 13.731 14.1254 14.4329 13.3746 15.1348C12.9993 15.4856 12.624 15.8365 12.2488 16.1873L12.1067 16.3198C12.0705 16.2874 12.0437 16.2626 12.0168 16.2379L12.0163 16.2374C10.858 15.1547 9.69961 14.0721 8.54385 12.9874C8.48133 12.9286 8.43224 12.9152 8.35266 12.9492C7.44994 13.3323 6.91254 14.0031 6.7415 14.9668L6.74129 14.968C6.71294 15.128 6.68462 15.2878 6.87534 15.3768C6.88515 15.3809 6.89394 15.3907 6.89859 15.4C6.98704 15.5742 7.14368 15.671 7.3 15.7676C7.32267 15.7817 7.34533 15.7957 7.36778 15.8099C7.37903 15.817 7.38946 15.8255 7.39986 15.8339C7.4038 15.8371 7.40773 15.8403 7.4117 15.8434C7.86074 16.1925 8.16664 16.6488 8.39555 17.1598C8.42073 17.2165 8.42237 17.284 8.42401 17.3512C8.42472 17.3806 8.42544 17.4099 8.42811 17.4382C8.42995 17.4572 8.42982 17.4768 8.42969 17.4962C8.42945 17.5313 8.42921 17.566 8.44051 17.5965C8.69887 18.2921 8.79343 19.0083 8.72212 19.7462C8.69784 20.0009 8.64255 20.2479 8.45446 20.4392C8.25397 20.6439 7.98165 20.7192 7.72019 20.7841C7.56027 20.8238 7.38486 20.8103 7.21399 20.7972C7.185 20.795 7.15613 20.7928 7.1275 20.7908C6.88619 20.7748 6.7074 20.5701 6.70585 20.3345C6.7043 20.1076 6.87844 19.8926 7.10011 19.8777C7.31559 19.8632 7.53313 19.8679 7.74964 19.8766C7.75519 19.8768 7.76052 19.8771 7.76564 19.8773C7.88808 19.8826 7.89391 19.8828 7.90879 19.7472C7.97442 19.1486 7.92171 18.5623 7.72329 17.9915L7.72316 17.9911C7.68704 17.8876 7.6529 17.7898 7.55277 17.7208C7.50939 17.691 7.48011 17.6395 7.45148 17.5892C7.44293 17.5741 7.43444 17.5592 7.42565 17.545C7.39177 17.4895 7.35993 17.4324 7.3281 17.3754C7.26141 17.2558 7.19477 17.1363 7.10941 17.0319C6.97713 16.8695 6.81798 16.7225 6.64953 16.5973C6.4728 16.4663 6.26456 16.4689 6.08164 16.5952C5.94471 16.6901 5.80312 16.7953 5.70495 16.9267C5.6018 17.0644 5.51299 17.2123 5.42407 17.3604C5.37179 17.4474 5.31947 17.5346 5.26418 17.6197C5.22943 17.6734 5.18683 17.722 5.14421 17.7706C5.12218 17.7957 5.10014 17.8208 5.07919 17.8466C5.07 17.8579 5.06007 17.8691 5.05011 17.8803C5.02195 17.9119 4.99347 17.9439 4.98049 17.9812C4.86009 18.3251 4.77483 18.6783 4.76812 19.0434C4.76459 19.2312 4.77678 19.4197 4.78896 19.608C4.79287 19.6683 4.79677 19.7287 4.80015 19.789C4.80325 19.8447 4.81979 19.8988 4.8973 19.8952C5.11277 19.8854 5.32825 19.8761 5.54424 19.8704C5.59798 19.8694 5.65482 19.8766 5.7065 19.8926C5.91525 19.9581 6.05425 20.1726 6.0248 20.3752C5.98915 20.6212 5.80932 20.7929 5.56336 20.7934C5.55395 20.7934 5.54454 20.7935 5.53514 20.7935C5.25508 20.7946 4.9809 20.7957 4.70042 20.6954C4.31443 20.5572 4.06795 20.3319 4.00594 19.9292C3.88916 19.1723 3.96667 18.4329 4.21625 17.7089C4.2358 17.6524 4.24241 17.5913 4.24902 17.5301C4.2529 17.4942 4.25678 17.4583 4.26327 17.4233C4.2667 17.4045 4.26972 17.3855 4.27275 17.3665C4.28297 17.3021 4.29329 17.2372 4.3196 17.1799C4.39349 17.0206 4.47513 16.8643 4.56608 16.7143C4.79602 16.3343 5.07299 15.994 5.45226 15.7511C5.56336 15.68 5.66619 15.6114 5.73337 15.4887C5.75904 15.4415 5.80163 15.4041 5.84456 15.3664C5.87161 15.3426 5.8988 15.3187 5.92197 15.2922C5.95194 15.2582 5.98501 15.2128 5.9876 15.1705C6.02377 14.5724 6.20411 14.0233 6.5343 13.5221C6.77767 13.1529 7.09339 12.8564 7.44787 12.597C7.44322 12.5919 7.43909 12.5867 7.43495 12.5811C6.65056 12.7672 5.91732 13.0771 5.24867 13.5246C3.43651 14.7374 2.36791 16.4214 2.06252 18.5819C2.05219 18.6548 2.04173 18.7277 2.03126 18.8005C2.0208 18.8733 2.01033 18.9462 2 19.0191V19.6791C2.00572 19.6955 2.01162 19.7119 2.01753 19.7283C2.03189 19.7682 2.04631 19.8082 2.05839 19.8488C2.16845 20.2164 2.39891 20.5021 2.67743 20.7537C3.13732 21.1693 3.67627 21.4575 4.24105 21.7009C5.24971 22.1351 6.30642 22.4052 7.38328 22.6043C8.5082 22.8121 9.64397 22.9255 10.7859 22.9776C10.8113 22.9786 10.9446 22.992 10.9694 22.9998C11.6985 22.9992 12.3196 22.9992 13.0492 22.9992C13.1017 22.9949 13.1542 22.9902 13.2067 22.9854C13.3117 22.9759 13.4166 22.9664 13.522 22.9606C15.175 22.8698 16.8079 22.6496 18.4015 22.1856C19.2339 21.9432 20.0406 21.638 20.7764 21.1708C21.0812 20.9775 21.3623 20.7552 21.5954 20.4768ZM14.1032 18.8021C14.1033 18.9004 14.1033 18.9997 14.1033 19.1006C13.9467 19.1006 13.7933 19.1003 13.6416 19.1C13.493 19.0998 13.346 19.0995 13.1991 19.0995C13.0606 19.1001 13.0017 19.1563 13.0012 19.2908C12.9996 19.5693 12.9996 19.8482 13.0012 20.1267C13.0017 20.2581 13.0575 20.3144 13.1893 20.3149C13.3614 20.3158 13.5337 20.3158 13.706 20.3158C13.8094 20.3157 13.9127 20.3157 14.016 20.3159C14.0342 20.3159 14.0522 20.3179 14.0712 20.32C14.0814 20.3211 14.0918 20.3222 14.1028 20.3231C14.1028 20.41 14.1027 20.4961 14.1027 20.5816C14.1024 20.7937 14.1022 21.0025 14.1033 21.2115C14.1039 21.3626 14.1586 21.4157 14.309 21.4157C14.588 21.4162 14.8676 21.4168 15.1466 21.4157C15.2624 21.4152 15.3228 21.359 15.328 21.243C15.3313 21.1701 15.3307 21.0966 15.33 21.0232C15.3298 20.9938 15.3295 20.9645 15.3295 20.9352V20.3164C15.408 20.3164 15.4856 20.3164 15.5625 20.3165C15.79 20.3166 16.0118 20.3167 16.2338 20.3159C16.3749 20.3154 16.4312 20.2612 16.4317 20.1256C16.4333 19.8472 16.4333 19.5682 16.4317 19.2898C16.4312 19.1604 16.3733 19.1016 16.2436 19.1006C16.0683 19.0993 15.8928 19.0994 15.7174 19.0996C15.6172 19.0996 15.517 19.0997 15.4169 19.0995C15.3966 19.0995 15.3764 19.0976 15.3548 19.0956C15.3466 19.0948 15.3382 19.0941 15.3295 19.0934C15.3295 19.0014 15.3297 18.9102 15.3298 18.8195C15.3301 18.6095 15.3305 18.402 15.329 18.1946C15.3285 18.058 15.2696 18.0007 15.1347 18.0002C14.9559 17.9999 14.7772 18 14.5984 18.0001C14.509 18.0002 14.4196 18.0002 14.3302 18.0002C14.1524 18.0002 14.1033 18.0492 14.1033 18.2292C14.103 18.419 14.1031 18.6085 14.1032 18.8021Z" fill="white"/>
</svg>
