<svg width="22" height="26" viewBox="0 0 22 26" fill="none" xmlns="http://www.w3.org/2000/svg">
<path d="M22.0023 5.40992V7.66992H0V5.40992C0 3.61992 1.33823 2.16992 2.99025 2.16992H5.98973V3.95992C5.98973 4.41992 6.40504 4.78992 6.91265 4.78992C7.42025 4.78992 7.83556 4.41992 7.83556 3.95992V2.16992H13.9914V3.95992C13.9914 4.41992 14.4067 4.78992 14.9143 4.78992C15.4219 4.78992 15.8372 4.41992 15.8372 3.95992V2.16992H19.0121C20.6641 2.16992 22.0023 3.61992 22.0023 5.40992Z" fill="white"/>
<path d="M0 9.66992H22.0023V22.7599C22.0023 24.5499 20.6641 25.9999 19.0121 25.9999H2.99025C1.33823 25.9999 0 24.5499 0 22.7599V9.66992Z" fill="white"/>
<path d="M7.83558 0.83V2.17H5.98975V0.83C5.98975 0.37 6.40506 0 6.91266 0C7.42027 0 7.83558 0.37 7.83558 0.83Z" fill="white"/>
<path d="M15.837 0.83V2.17H13.9912V0.83C13.9912 0.37 14.4065 0 14.9141 0C15.4217 0 15.837 0.37 15.837 0.83Z" fill="white"/>
</svg>
