<svg width="48" height="48" viewBox="0 0 48 48" fill="none" xmlns="http://www.w3.org/2000/svg">
<ellipse cx="24" cy="23.9757" rx="24" ry="23.9757" fill="#0072CE"/>
<path d="M24.4132 11.6889C24.5997 11.7179 24.7867 11.7442 24.9726 11.7759C27.1145 12.1375 28.9178 13.8779 29.3499 15.9978C29.6616 17.5258 29.3568 18.9505 28.6141 20.2956C28.0468 21.3229 27.2793 22.1731 26.2424 22.7429C24.5664 23.6642 22.9216 23.5546 21.3528 22.4878C20.0983 21.6344 19.2885 20.4369 18.8269 19.0053C18.4239 17.7561 18.3853 16.4943 18.8707 15.262C19.6424 13.3012 21.085 12.1306 23.1667 11.7527C23.2818 11.7316 23.397 11.7105 23.5116 11.6889C23.8127 11.6889 24.1127 11.6889 24.4132 11.6889Z" fill="white"/>
<path d="M29.0784 27.6326C29.08 27.2189 29.4159 26.8884 29.8332 26.8894C30.2468 26.8905 30.5864 27.231 30.5827 27.6405C30.579 28.0601 30.2373 28.3958 29.8195 28.3911C29.4053 28.3864 29.0768 28.0495 29.0784 27.6326Z" fill="white"/>
<path d="M19.3325 23.5259C19.3435 23.5237 19.3545 23.521 19.366 23.5188C19.3673 23.5224 19.3682 23.5259 19.3695 23.5294C19.3607 23.5329 19.3523 23.5364 19.3435 23.5399C19.3396 23.5351 19.336 23.5307 19.3325 23.5259Z" fill="white"/>
<path fill-rule="evenodd" clip-rule="evenodd" d="M33.8121 31.5984C33.9869 31.3892 34.1232 31.1594 34.1887 30.8916C34.1887 30.8916 34.2648 30.3761 34.1987 29.9634C34.177 29.8362 34.159 29.7079 34.1409 29.5795C34.1026 29.3065 34.0643 29.0334 33.9896 28.7706C33.2332 26.1062 31.5138 24.3784 28.8601 23.5741C28.8338 23.5661 28.8049 23.5657 28.7717 23.5653C28.755 23.565 28.7371 23.5648 28.718 23.5636C29.1501 23.8614 29.4834 24.2203 29.7385 24.6525C29.9952 25.0879 30.1389 25.5596 30.188 26.0561C30.9539 26.2354 31.5418 26.9474 31.4462 27.8314C31.3654 28.5793 30.7152 29.2092 29.9762 29.2555C29.1564 29.3072 28.4465 28.8033 28.2521 28.0396C28.0572 27.2732 28.4539 26.3408 29.4295 26.0577C29.4295 26.0539 29.4297 26.0499 29.4298 26.0458C29.4301 26.0359 29.4305 26.0256 29.429 26.0156C29.2827 25.0473 28.7582 24.3626 27.8745 23.9447C27.7989 23.9088 27.7604 23.9383 27.7107 23.9847C26.9436 24.7028 26.176 25.4203 25.4084 26.1379C25.0249 26.4964 24.6413 26.855 24.2578 27.2136L24.1125 27.3491C24.0756 27.3159 24.0482 27.2907 24.0208 27.2654L24.0206 27.2653L24.0196 27.2643C22.8357 26.1578 21.6518 25.0512 20.4705 23.9425C20.4066 23.8825 20.3564 23.8688 20.2751 23.9035C19.3523 24.2952 18.803 24.9809 18.6281 25.966L18.6279 25.9672C18.5989 26.1308 18.57 26.2941 18.7649 26.385C18.775 26.3893 18.7839 26.3993 18.7887 26.4088C18.8791 26.5869 19.0392 26.6859 19.199 26.7846C19.2222 26.7989 19.2454 26.8132 19.2683 26.8278C19.2798 26.8351 19.2905 26.8437 19.3011 26.8523C19.3051 26.8556 19.3092 26.8589 19.3132 26.8621C19.7722 27.2189 20.0849 27.6854 20.3189 28.2077C20.3447 28.2657 20.3463 28.3346 20.348 28.4034C20.3487 28.4334 20.3495 28.4633 20.3522 28.4923C20.3541 28.5117 20.354 28.5317 20.3538 28.5516C20.3536 28.5874 20.3533 28.623 20.3649 28.6541C20.629 29.3652 20.7256 30.0973 20.6528 30.8515C20.6279 31.1119 20.5714 31.3644 20.3791 31.5599C20.1742 31.7692 19.8958 31.8462 19.6286 31.9126C19.4651 31.9531 19.2858 31.9394 19.1111 31.9259C19.0815 31.9237 19.052 31.9214 19.0227 31.9194C18.776 31.9031 18.5933 31.6938 18.5917 31.4529C18.5901 31.221 18.7681 31.0012 18.9947 30.986C19.215 30.9712 19.4373 30.9759 19.6587 30.9849C19.6643 30.9851 19.6698 30.9854 19.675 30.9856C19.8002 30.991 19.8061 30.9912 19.8214 30.8526C19.8884 30.2407 19.8346 29.6414 19.6317 29.0579L19.6316 29.0575C19.5947 28.9517 19.5598 28.8517 19.4574 28.7812C19.4131 28.7507 19.3831 28.6981 19.3539 28.6466C19.3451 28.6312 19.3365 28.616 19.3275 28.6014C19.2928 28.5447 19.2603 28.4864 19.2278 28.428C19.1596 28.3058 19.0915 28.1837 19.0042 28.077C18.869 27.911 18.7063 27.7607 18.5341 27.6327C18.3534 27.4988 18.1406 27.5014 17.9536 27.6305C17.8136 27.7275 17.6689 27.8351 17.5685 27.9695C17.4631 28.1102 17.3723 28.2614 17.2814 28.4127C17.228 28.5017 17.1745 28.5908 17.118 28.6779C17.0824 28.7328 17.0389 28.7824 16.9953 28.832C16.9728 28.8577 16.9503 28.8834 16.9289 28.9098C16.9195 28.9213 16.9093 28.9327 16.8991 28.9442C16.8704 28.9765 16.8412 29.0092 16.828 29.0473C16.7049 29.3989 16.6177 29.76 16.6109 30.1331C16.6073 30.3252 16.6197 30.5178 16.6322 30.7103C16.6362 30.772 16.6402 30.8337 16.6436 30.8953C16.6468 30.9522 16.6637 31.0076 16.7429 31.0039C16.9632 30.9939 17.1835 30.9844 17.4043 30.9786C17.4592 30.9775 17.5173 30.9849 17.5701 31.0012C17.7835 31.0682 17.9256 31.2874 17.8955 31.4946C17.859 31.746 17.6752 31.9215 17.4238 31.9221C17.4142 31.9221 17.4046 31.9221 17.395 31.9222C17.1087 31.9233 16.8284 31.9244 16.5417 31.8219C16.1471 31.6806 15.8952 31.4503 15.8318 31.0387C15.7124 30.2649 15.7916 29.5091 16.0467 28.769C16.0667 28.7112 16.0735 28.6488 16.0803 28.5862C16.0842 28.5496 16.0882 28.5129 16.0948 28.477C16.0983 28.4579 16.1014 28.4384 16.1045 28.419C16.115 28.3532 16.1255 28.2868 16.1524 28.2283C16.2279 28.0654 16.3114 27.9057 16.4043 27.7523C16.6394 27.3638 16.9225 27.016 17.3102 26.7677C17.4238 26.695 17.5289 26.6249 17.5976 26.4994C17.6238 26.4512 17.6674 26.413 17.7112 26.3744C17.7389 26.3501 17.7667 26.3257 17.7904 26.2986C17.821 26.2638 17.8548 26.2174 17.8575 26.1742C17.8944 25.5628 18.0788 25.0015 18.4163 24.4891C18.6651 24.1117 18.9878 23.8087 19.3502 23.5435C19.3454 23.5383 19.3412 23.533 19.337 23.5272C18.5352 23.7175 17.7856 24.0343 17.1021 24.4918C15.2497 25.7315 14.1573 27.4529 13.8452 29.6614C13.8346 29.736 13.8239 29.8104 13.8132 29.8849C13.8025 29.9593 13.7918 30.0338 13.7812 30.1084V30.783C13.7871 30.7998 13.7931 30.8165 13.7992 30.8333C13.8139 30.8741 13.8286 30.915 13.8409 30.9564C13.9534 31.3322 14.189 31.6242 14.4737 31.8815C14.9438 32.3063 15.4948 32.6009 16.0721 32.8497C17.1032 33.2935 18.1834 33.5697 19.2842 33.7732C20.4341 33.9856 21.5951 34.1015 22.7624 34.1548C22.7883 34.1558 22.9246 34.1695 22.9499 34.1774C23.6953 34.1769 24.3302 34.1769 25.076 34.1769C25.1297 34.1725 25.1833 34.1677 25.237 34.1628C25.3443 34.1531 25.4516 34.1433 25.5593 34.1374C27.2491 34.0446 28.9182 33.8195 30.5472 33.3452C31.3982 33.0974 32.2227 32.7854 32.9749 32.3079C33.2865 32.1102 33.5739 31.883 33.8121 31.5984ZM26.155 29.8865C26.1551 29.9869 26.1551 30.0885 26.1551 30.1916C25.995 30.1916 25.8382 30.1913 25.6831 30.1911C25.5312 30.1908 25.381 30.1905 25.2308 30.1905C25.0892 30.1911 25.029 30.2485 25.0284 30.3861C25.0269 30.6707 25.0269 30.9559 25.0284 31.2405C25.029 31.3749 25.086 31.4323 25.2207 31.4329C25.3967 31.4339 25.5729 31.4338 25.7491 31.4338C25.8547 31.4338 25.9603 31.4337 26.0659 31.4339C26.0844 31.4339 26.1028 31.4359 26.1222 31.4381C26.1326 31.4392 26.1434 31.4404 26.1546 31.4413C26.1546 31.5301 26.1545 31.6181 26.1544 31.7055C26.1542 31.9223 26.154 32.1358 26.1551 32.3495C26.1557 32.5039 26.2116 32.5582 26.3654 32.5582C26.6506 32.5587 26.9363 32.5592 27.2216 32.5582C27.3399 32.5577 27.4017 32.5002 27.407 32.3816C27.4104 32.3071 27.4097 32.232 27.4091 32.1569C27.4088 32.1269 27.4086 32.0969 27.4086 32.0669V31.4345C27.4888 31.4345 27.5681 31.4345 27.6468 31.4345C27.8793 31.4346 28.106 31.4347 28.3329 31.4339C28.4771 31.4334 28.5347 31.3781 28.5352 31.2394C28.5368 30.9548 28.5368 30.6697 28.5352 30.385C28.5347 30.2527 28.4756 30.1926 28.343 30.1916C28.1638 30.1903 27.9844 30.1904 27.805 30.1906C27.7026 30.1906 27.6002 30.1907 27.4978 30.1905C27.4772 30.1905 27.4565 30.1886 27.4344 30.1865C27.426 30.1857 27.4174 30.1849 27.4086 30.1842C27.4086 30.0903 27.4087 29.997 27.4089 29.9043C27.4092 29.6896 27.4095 29.4775 27.408 29.2655C27.4075 29.1258 27.3473 29.0673 27.2094 29.0668C27.0267 29.0664 26.8439 29.0666 26.6612 29.0667C26.5698 29.0667 26.4784 29.0668 26.387 29.0668C26.2053 29.0668 26.1551 29.1169 26.1551 29.3008C26.1548 29.4948 26.1549 29.6886 26.155 29.8865Z" fill="white"/>
</svg>
