<svg width="32" height="32" viewBox="0 0 32 32" fill="none" xmlns="http://www.w3.org/2000/svg">
<circle cx="16" cy="16" r="16" fill="#C31C4A"/>
<path d="M20.994 22.9814H11.0059C10.0886 22.9814 9.23854 22.5015 8.76445 21.7169C8.28946 20.9324 8.25998 19.957 8.68501 19.1445L13.679 9.61589C14.1319 8.7527 15.0254 8.21219 15.9999 8.21219C16.9744 8.21219 17.8679 8.7527 18.3207 9.61589L23.3147 19.1445C23.7397 19.9569 23.7103 20.9323 23.2353 21.7169C22.7611 22.5015 21.9112 22.9814 20.994 22.9814ZM14.6077 10.1023L9.61376 19.6309C9.3566 20.1182 9.37381 20.7054 9.6588 21.1771C9.9438 21.6489 10.4548 21.9379 11.006 21.9371H20.9942C21.5453 21.9379 22.0564 21.6489 22.3414 21.1771C22.6264 20.7054 22.6436 20.1182 22.3864 19.6309L17.3924 10.1023C17.1205 9.58474 16.5841 9.26044 16.0002 9.26044C15.4163 9.26044 14.8798 9.58476 14.608 10.1023H14.6077Z" fill="white"/>
<path d="M16.0002 17.2296C15.7111 17.2296 15.4761 16.9946 15.4761 16.7055V11.8834C15.4761 11.5935 15.7111 11.3593 16.0002 11.3593C16.2893 11.3593 16.5243 11.5935 16.5243 11.8834V16.7055C16.5243 16.8439 16.4695 16.9774 16.3712 17.0756C16.2729 17.1739 16.1394 17.2296 16.0002 17.2296Z" fill="white"/>
<path d="M16.6293 18.6415C16.6293 19.4801 15.3713 19.4801 15.3713 18.6415C15.3713 17.8029 16.6293 17.8029 16.6293 18.6415Z" fill="white"/>
</svg>
