<svg width="49" height="49" viewBox="0 0 49 49" fill="none" xmlns="http://www.w3.org/2000/svg">
<rect x="2.74609" y="1.20703" width="44" height="44" rx="8" fill="white"/>
<g filter="url(#filter0_d_135_6355)">
<rect x="2.74609" y="1.20703" width="44" height="44" rx="8" fill="white"/>
<rect x="3.24609" y="1.70703" width="43" height="43" rx="7.5" stroke="#EAECF0"/>
</g>
<g clip-path="url(#clip0_135_6355)">
<path d="M28.0781 30.707V29.0404C28.0781 28.1563 27.7269 27.3085 27.1018 26.6833C26.4767 26.0582 25.6288 25.707 24.7448 25.707H18.9115C18.0274 25.707 17.1796 26.0582 16.5544 26.6833C15.9293 27.3085 15.5781 28.1563 15.5781 29.0404V30.707" stroke="#3E3E3E" stroke-width="1.66667" stroke-linecap="round" stroke-linejoin="round"/>
<path d="M21.8294 22.3737C23.6704 22.3737 25.1628 20.8813 25.1628 19.0404C25.1628 17.1994 23.6704 15.707 21.8294 15.707C19.9885 15.707 18.4961 17.1994 18.4961 19.0404C18.4961 20.8813 19.9885 22.3737 21.8294 22.3737Z" stroke="#3E3E3E" stroke-width="1.66667" stroke-linecap="round" stroke-linejoin="round"/>
<path d="M29.7461 19.875L33.9128 24.0417" stroke="#3E3E3E" stroke-width="1.66667" stroke-linecap="round" stroke-linejoin="round"/>
<path d="M33.9128 19.875L29.7461 24.0417" stroke="#3E3E3E" stroke-width="1.66667" stroke-linecap="round" stroke-linejoin="round"/>
</g>
<defs>
<filter id="filter0_d_135_6355" x="0.746094" y="0.207031" width="48" height="48" filterUnits="userSpaceOnUse" color-interpolation-filters="sRGB">
<feFlood flood-opacity="0" result="BackgroundImageFix"/>
<feColorMatrix in="SourceAlpha" type="matrix" values="0 0 0 0 0 0 0 0 0 0 0 0 0 0 0 0 0 0 127 0" result="hardAlpha"/>
<feOffset dy="1"/>
<feGaussianBlur stdDeviation="1"/>
<feColorMatrix type="matrix" values="0 0 0 0 0.0627451 0 0 0 0 0.0941176 0 0 0 0 0.156863 0 0 0 0.05 0"/>
<feBlend mode="normal" in2="BackgroundImageFix" result="effect1_dropShadow_135_6355"/>
<feBlend mode="normal" in="SourceGraphic" in2="effect1_dropShadow_135_6355" result="shape"/>
</filter>
<clipPath id="clip0_135_6355">
<rect width="20" height="20" fill="white" transform="translate(14.7461 13.207)"/>
</clipPath>
</defs>
</svg>
