<svg width="13" height="15" viewBox="0 0 13 15" fill="none" xmlns="http://www.w3.org/2000/svg">
<path fill-rule="evenodd" clip-rule="evenodd" d="M12.4961 2.5C12.4961 2.22385 12.2722 2 11.9961 2H9.38647L9.17052 1.1362C9.00359 0.468445 8.40362 0 7.71532 0H4.77687C4.08857 0 3.48859 0.468445 3.32164 1.1362L3.10569 2H0.496094C0.219951 2 -0.00390625 2.22385 -0.00390625 2.5C-0.00390625 2.77615 0.219951 3 0.496094 3H0.786019L1.67142 13.6246C1.73619 14.402 2.38609 15 3.16622 15H9.32597C10.1061 15 10.756 14.402 10.8208 13.6246L11.7062 3H11.9961C12.2722 3 12.4961 2.77615 12.4961 2.5ZM8.20039 1.37873L8.35569 2H4.13647L4.29179 1.37873C4.34744 1.15615 4.54744 1 4.77687 1H7.71532C7.94474 1 8.14474 1.15615 8.20039 1.37873ZM3.99462 5.21165C3.97344 4.93632 3.73307 4.7303 3.45774 4.75147C3.18242 4.77265 2.97637 5.01303 2.99757 5.28835L3.49757 11.7884C3.51874 12.0637 3.75912 12.2697 4.03444 12.2485C4.30977 12.2273 4.51579 11.987 4.49462 11.7116L3.99462 5.21165ZM9.49462 5.28835C9.51579 5.01303 9.30977 4.77265 9.03444 4.75147C8.75912 4.7303 8.51874 4.93632 8.49757 5.21165L7.99757 11.7116C7.97639 11.987 8.18242 12.2273 8.45774 12.2485C8.73307 12.2697 8.97344 12.0637 8.99462 11.7884L9.49462 5.28835ZM6.74609 5.25C6.74609 4.97385 6.52222 4.75 6.24609 4.75C5.96994 4.75 5.74609 4.97385 5.74609 5.25V11.75C5.74609 12.0261 5.96994 12.25 6.24609 12.25C6.52222 12.25 6.74609 12.0261 6.74609 11.75V5.25Z" fill="#969696"/>
</svg>
