<?xml version="1.0" encoding="UTF-8"?>
<svg width="26px" height="26px" viewBox="0 0 26 26" version="1.1" xmlns="http://www.w3.org/2000/svg" xmlns:xlink="http://www.w3.org/1999/xlink">
    <title>6F6C9715-605D-4800-9008-3705FDEE319F</title>
    <g id="Page-1" stroke="none" stroke-width="1" fill="none" fill-rule="evenodd">
        <g id="web_assets" transform="translate(-639.000000, -820.000000)" fill="#FFFFFF" fill-rule="nonzero">
            <g id="Layer0_1_FILL" transform="translate(639.000000, 820.000000)">
                <path d="M26,12.9912221 C26,9.4098582 24.7292793,6.34931353 22.1878378,3.80958812 C19.6463964,1.26986271 16.5837838,0 13,0 C9.41621622,0 6.34774775,1.26986271 3.79459459,3.80958812 C1.26486486,6.34931353 0,9.4098582 0,12.9912221 C0,16.5842899 1.26486486,19.6448346 3.79459459,22.1728562 C6.34774775,24.7242854 9.41621622,26 13,26 C16.5837838,26 19.6463964,24.7242854 22.1878378,22.1728562 C24.7292793,19.6448346 26,16.5842899 26,12.9912221 M20.9405405,4.89804186 C23.1657658,7.12176457 24.2783784,9.80193563 24.2783784,12.938555 C24.2783784,16.0751744 23.1657658,18.7494936 20.9405405,20.9615125 C18.727027,23.196939 16.045045,24.3146523 12.8945946,24.3146523 C9.76756757,24.3146523 7.09144144,23.196939 4.86621622,20.9615125 C2.6527027,18.7494936 1.54594595,16.0751744 1.54594595,12.938555 C1.54594595,9.80193563 2.6527027,7.12176457 4.86621622,4.89804186 C7.09144144,2.68602296 9.76756757,1.5800135 12.8945946,1.5800135 C16.045045,1.5800135 18.727027,2.68602296 20.9405405,4.89804186 M9.96081081,16.3092505 L7.81756757,16.3092505 L7.81756757,18.4510466 L9.96081081,18.4510466 L9.96081081,16.3092505 M9.96081081,9.67319379 L9.96081081,7.5313977 L7.81756757,7.5313977 L7.81756757,9.67319379 L9.96081081,9.67319379 M7.81756757,11.9203241 L7.81756757,14.0621202 L9.96081081,14.0621202 L9.96081081,11.9203241 L7.81756757,11.9203241 M18.1824324,18.4510466 L18.1824324,16.3092505 L12.0337838,16.3092505 L12.0337838,18.4510466 L18.1824324,18.4510466 M18.1824324,9.67319379 L18.1824324,7.5313977 L12.0337838,7.5313977 L12.0337838,9.67319379 L18.1824324,9.67319379 M18.1824324,14.0621202 L18.1824324,11.9203241 L12.0337838,11.9203241 L12.0337838,14.0621202 L18.1824324,14.0621202 Z" id="Shape"></path>
            </g>
        </g>
    </g>
</svg>