<svg width="21" height="21" viewBox="0 0 21 21" fill="none" xmlns="http://www.w3.org/2000/svg">
<g clip-path="url(#clip0_298_1470)">
<path d="M9.46484 3.46875H3.63151C3.18948 3.46875 2.76556 3.64434 2.453 3.95691C2.14044 4.26947 1.96484 4.69339 1.96484 5.13542V16.8021C1.96484 17.2441 2.14044 17.668 2.453 17.9806C2.76556 18.2932 3.18948 18.4687 3.63151 18.4687H15.2982C15.7402 18.4687 16.1641 18.2932 16.4767 17.9806C16.7892 17.668 16.9648 17.2441 16.9648 16.8021V10.9687" stroke="#3E3E3E" stroke-width="1.5" stroke-linecap="round" stroke-linejoin="round"/>
<path d="M15.7148 2.22089C16.0464 1.88937 16.496 1.70312 16.9648 1.70312C17.4337 1.70313 17.8833 1.88937 18.2148 2.22089C18.5464 2.55241 18.7326 3.00205 18.7326 3.47089C18.7326 3.93973 18.5464 4.38937 18.2148 4.72089L10.2982 12.6376L6.96484 13.4709L7.79818 10.1376L15.7148 2.22089Z" stroke="#3E3E3E" stroke-width="1.5" stroke-linecap="round" stroke-linejoin="round"/>
</g>
<defs>
<clipPath id="clip0_298_1470">
<rect width="20" height="20" fill="white" transform="translate(0.296875 0.136719)"/>
</clipPath>
</defs>
</svg>
