<svg width="49" height="49" viewBox="0 0 49 49" fill="none" xmlns="http://www.w3.org/2000/svg">
<rect x="2.74609" y="1.20703" width="44" height="44" rx="8" fill="white"/>
<g filter="url(#filter0_d_135_6318)">
<rect x="2.74609" y="1.20703" width="44" height="44" rx="8" fill="white"/>
<path d="M28.9141 15.706C29.1329 15.4871 29.3928 15.3135 29.6787 15.195C29.9647 15.0766 30.2712 15.0156 30.5807 15.0156C30.8903 15.0156 31.1968 15.0766 31.4827 15.195C31.7687 15.3135 32.0285 15.4871 32.2474 15.706C32.4663 15.9249 32.6399 16.1847 32.7583 16.4707C32.8768 16.7566 32.9378 17.0631 32.9378 17.3726C32.9378 17.6822 32.8768 17.9887 32.7583 18.2746C32.6399 18.5606 32.4663 18.8204 32.2474 19.0393L20.9974 30.2893L16.4141 31.5393L17.6641 26.956L28.9141 15.706Z" stroke="#3E3E3E" stroke-width="1.66667" stroke-linecap="round" stroke-linejoin="round"/>
<rect x="3.24609" y="1.70703" width="43" height="43" rx="7.5" stroke="#EAECF0"/>
</g>
<defs>
<filter id="filter0_d_135_6318" x="0.746094" y="0.207031" width="48" height="48" filterUnits="userSpaceOnUse" color-interpolation-filters="sRGB">
<feFlood flood-opacity="0" result="BackgroundImageFix"/>
<feColorMatrix in="SourceAlpha" type="matrix" values="0 0 0 0 0 0 0 0 0 0 0 0 0 0 0 0 0 0 127 0" result="hardAlpha"/>
<feOffset dy="1"/>
<feGaussianBlur stdDeviation="1"/>
<feColorMatrix type="matrix" values="0 0 0 0 0.0627451 0 0 0 0 0.0941176 0 0 0 0 0.156863 0 0 0 0.05 0"/>
<feBlend mode="normal" in2="BackgroundImageFix" result="effect1_dropShadow_135_6318"/>
<feBlend mode="normal" in="SourceGraphic" in2="effect1_dropShadow_135_6318" result="shape"/>
</filter>
</defs>
</svg>
