<svg width="33" height="33" viewBox="0 0 33 33" fill="none" xmlns="http://www.w3.org/2000/svg">
<path d="M25.5716 4.38672H6.90495C5.43219 4.38672 4.23828 5.58063 4.23828 7.05339V25.7201C4.23828 27.1928 5.43219 28.3867 6.90495 28.3867H25.5716C27.0444 28.3867 28.2383 27.1928 28.2383 25.7201V7.05339C28.2383 5.58063 27.0444 4.38672 25.5716 4.38672Z" stroke="#0072CE" stroke-width="2.66667" stroke-linecap="round" stroke-linejoin="round"/>
<path d="M9.23828 16.3867C9.23828 16.3867 11.7837 11.3867 16.2383 11.3867C20.6928 11.3867 23.2383 16.3867 23.2383 16.3867C23.2383 16.3867 20.6928 21.3867 16.2383 21.3867C11.7837 21.3867 9.23828 16.3867 9.23828 16.3867Z" stroke="#0072CE" stroke-width="2" stroke-linecap="round" stroke-linejoin="round"/>
<path d="M16.2383 18.3867C17.3429 18.3867 18.2383 17.4913 18.2383 16.3867C18.2383 15.2821 17.3429 14.3867 16.2383 14.3867C15.1337 14.3867 14.2383 15.2821 14.2383 16.3867C14.2383 17.4913 15.1337 18.3867 16.2383 18.3867Z" stroke="#0072CE" stroke-width="2" stroke-linecap="round" stroke-linejoin="round"/>
</svg>
