<svg width="69" height="83" viewBox="0 0 69 83" fill="none" xmlns="http://www.w3.org/2000/svg">
<path d="M31.5078 1.99219H8.17448C6.40637 1.99219 4.71068 2.69457 3.46043 3.94481C2.21019 5.19505 1.50781 6.89074 1.50781 8.65885V61.9922C1.50781 63.7603 2.21019 65.456 3.46043 66.7062C4.71068 67.9565 6.40637 68.6589 8.17448 68.6589H48.1745C49.9426 68.6589 51.6383 67.9565 52.8885 66.7062C54.1388 65.456 54.8411 63.7603 54.8411 61.9922V25.3255L31.5078 1.99219Z" fill="#F3F5F7" stroke="#DDDFE3" stroke-width="2" stroke-linecap="round" stroke-linejoin="round"/>
<path d="M31.0801 2.91699V20.2503C31.0801 23.564 33.7664 26.2503 37.0801 26.2503H54.4134" fill="#F3F5F7"/>
<path d="M31.0801 2.91699V20.2503C31.0801 23.564 33.7664 26.2503 37.0801 26.2503H54.4134" stroke="#DDDFE3" stroke-width="2" stroke-linecap="round" stroke-linejoin="round"/>
<circle cx="49.7539" cy="64.2432" r="18.6738" fill="#141827"/>
<path d="M52.8032 67.2932L49.7532 64.2432L46.7031 67.2932" stroke="white" stroke-width="2" stroke-linecap="round" stroke-linejoin="round"/>
<path d="M49.7539 64.2432V71.1058" stroke="white" stroke-width="2" stroke-linecap="round" stroke-linejoin="round"/>
<path d="M56.1506 69.116C56.8943 68.7106 57.4818 68.069 57.8204 67.2926C58.159 66.5161 58.2293 65.6491 58.0204 64.8282C57.8115 64.0073 57.3351 63.2794 56.6665 62.7593C55.9979 62.2392 55.1752 61.9566 54.3281 61.956H53.3674C53.1366 61.0633 52.7064 60.2345 52.1092 59.532C51.512 58.8295 50.7633 58.2714 49.9194 57.8999C49.0755 57.5284 48.1583 57.353 47.2368 57.3869C46.3154 57.4209 45.4136 57.6633 44.5994 58.0959C43.7851 58.5285 43.0795 59.1401 42.5356 59.8847C41.9917 60.6293 41.6236 61.4875 41.4592 62.3948C41.2947 63.3021 41.338 64.2348 41.5859 65.1229C41.8338 66.0111 42.2798 66.8314 42.8904 67.5224" stroke="white" stroke-width="2" stroke-linecap="round" stroke-linejoin="round"/>
<path d="M52.8032 67.2932L49.7532 64.2432L46.7031 67.2932" stroke="white" stroke-width="2" stroke-linecap="round" stroke-linejoin="round"/>
</svg>
