<svg width="31" height="31" viewBox="0 0 31 31" fill="none" xmlns="http://www.w3.org/2000/svg">
<path d="M16.7481 11.3474H23.6256L16.7481 4.47366V11.3474ZM7.99931 2.59866H18.0006L25.5006 10.0987V25.0987C25.5003 25.4269 25.4354 25.7518 25.3096 26.055C25.1838 26.3581 24.9994 26.6335 24.7672 26.8654C24.5349 27.0973 24.2593 27.2812 23.9559 27.4066C23.6526 27.532 23.3275 27.5964 22.9993 27.5962H7.99931C6.61181 27.5962 5.49806 26.4712 5.49806 25.0987V5.09616C5.49707 4.76759 5.56111 4.44207 5.68651 4.13836C5.8119 3.83466 5.99616 3.55878 6.22867 3.32662C6.46118 3.09446 6.73734 2.91061 7.04123 2.78567C7.34513 2.66073 7.67074 2.59717 7.99931 2.59866ZM14.4999 23.1721L20.4362 17.2358L18.9746 15.4705L14.4999 19.9462L12.5115 17.9718L11.0612 19.4221L14.4999 23.1721Z" fill="white"/>
</svg>
