<svg width="21" height="21" viewBox="0 0 21 21" fill="none" xmlns="http://www.w3.org/2000/svg">
<path d="M10.5413 18.8444C15.1437 18.8444 18.8747 15.1134 18.8747 10.5111C18.8747 5.90869 15.1437 2.17773 10.5413 2.17773C5.93897 2.17773 2.20801 5.90869 2.20801 10.5111C2.20801 15.1134 5.93897 18.8444 10.5413 18.8444Z" fill="#0072CE" stroke="white" stroke-width="0.25" stroke-linecap="round" stroke-linejoin="round"/>
<path fill-rule="evenodd" clip-rule="evenodd" d="M10.5516 15.5829C10.3027 15.5829 10.0852 15.5017 9.89967 15.3395C9.71387 15.1771 9.62097 14.9501 9.62097 14.6583C9.62097 14.3996 9.71068 14.1817 9.89036 14.0051C10.07 13.8285 10.2904 13.74 10.5516 13.74C10.8087 13.74 11.0249 13.8285 11.2006 14.0051C11.376 14.1817 11.4638 14.3996 11.4638 14.6583C11.4638 14.9461 11.372 15.172 11.1883 15.3363C11.0046 15.5006 10.7925 15.5829 10.5516 15.5829ZM7.70989 6.91834C7.97212 6.49207 8.35495 6.13904 8.85809 5.85918C9.36095 5.57944 9.94795 5.43945 10.6188 5.43945C11.2423 5.43945 11.7928 5.55648 12.2699 5.79032C12.7472 6.02427 13.116 6.34236 13.3763 6.74456C13.6363 7.14684 13.7664 7.58399 13.7664 8.05619C13.7664 8.42785 13.6921 8.75359 13.544 9.03336C13.3956 9.31322 13.2192 9.55472 13.0151 9.75804C12.8106 9.96134 12.444 10.3035 11.9154 10.7844C11.769 10.9199 11.6517 11.0391 11.5637 11.1418C11.4756 11.2446 11.41 11.3386 11.3671 11.4238C11.3239 11.5091 11.2905 11.5943 11.267 11.6796C11.2434 11.7649 11.2078 11.9146 11.1607 12.1288C11.0788 12.5836 10.823 12.8109 10.393 12.8109C10.1695 12.8109 9.98133 12.7365 9.82876 12.5879C9.67591 12.4393 9.59962 12.2186 9.59962 11.9255C9.59962 11.5583 9.65544 11.2402 9.76734 10.9713C9.87924 10.7024 10.0276 10.4663 10.2124 10.263C10.3973 10.0597 10.6469 9.81819 10.9607 9.53833C11.2358 9.29351 11.4347 9.10876 11.5572 8.98417C11.6798 8.85955 11.783 8.72082 11.8669 8.56772C11.9507 8.41473 11.9928 8.24865 11.9928 8.06931C11.9928 7.71956 11.8646 7.42444 11.6088 7.18394C11.3531 6.94354 11.023 6.82323 10.6188 6.82323C10.1457 6.82323 9.79735 6.94457 9.57382 7.18722C9.3503 7.42989 9.16099 7.78728 9.00645 8.25949C8.86005 8.75359 8.58268 9.00057 8.17433 9.00057C7.93342 9.00057 7.73008 8.91428 7.56461 8.7415C7.39914 8.56886 7.31641 8.38193 7.31641 8.18078C7.31641 7.76547 7.44738 7.3446 7.70989 6.91834Z" fill="white"/>
</svg>
