<svg width="21" height="21" viewBox="0 0 21 21" fill="none" xmlns="http://www.w3.org/2000/svg">
<g clip-path="url(#clip0_3031_10)">
<path d="M10.5002 20.841C16.2108 20.841 20.8402 16.2111 20.8402 10.5C20.8402 4.7889 16.2108 0.159119 10.5002 0.159119C4.78954 0.159119 0.160156 4.7889 0.160156 10.5C0.160156 16.2111 4.78954 20.841 10.5002 20.841Z" fill="#FF5C00" stroke="white" stroke-width="0.25" stroke-linecap="round" stroke-linejoin="round"/>
<path fill-rule="evenodd" clip-rule="evenodd" d="M10.512 16.7928C10.2166 16.7928 9.95844 16.692 9.73821 16.4907C9.51771 16.2892 9.40744 16.0076 9.40744 15.6453C9.40744 15.3244 9.51388 15.0541 9.72716 14.8348C9.94045 14.6156 10.202 14.506 10.512 14.506C10.8172 14.506 11.0738 14.6156 11.2824 14.8348C11.4905 15.0541 11.5948 15.3244 11.5948 15.6453C11.5948 16.0025 11.4859 16.2829 11.2678 16.4867C11.0498 16.6906 10.798 16.7928 10.512 16.7928ZM7.13892 6.04243C7.45018 5.51348 7.90457 5.0754 8.50179 4.72812C9.09866 4.38098 9.79537 4.20728 10.5917 4.20728C11.3317 4.20728 11.9852 4.3525 12.5514 4.64266C13.118 4.93297 13.5557 5.3277 13.8647 5.82679C14.1733 6.32598 14.3277 6.86845 14.3277 7.45441C14.3277 7.9156 14.2395 8.31981 14.0638 8.66699C13.8876 9.01426 13.6783 9.31395 13.4359 9.56628C13.1933 9.81848 12.7582 10.2431 12.1307 10.8398C11.9569 11.008 11.8178 11.156 11.7132 11.2834C11.6087 11.4108 11.5308 11.5275 11.4798 11.6333C11.4286 11.7391 11.389 11.8449 11.361 11.9507C11.333 12.0566 11.2908 12.2424 11.2349 12.5081C11.1376 13.0725 10.834 13.3546 10.3237 13.3546C10.0584 13.3546 9.835 13.2622 9.65394 13.0779C9.47252 12.8934 9.38195 12.6196 9.38195 12.2558C9.38195 11.8002 9.44823 11.4054 9.58099 11.0718C9.71383 10.7382 9.88996 10.4451 10.1094 10.1928C10.3287 9.94056 10.625 9.64083 10.9975 9.2936C11.3241 8.98982 11.5601 8.76054 11.7055 8.60594C11.851 8.45131 11.9735 8.27916 12.073 8.08916C12.1726 7.89931 12.2225 7.69323 12.2225 7.47068C12.2225 7.03667 12.0704 6.67046 11.7668 6.37202C11.4632 6.07372 11.0713 5.92442 10.5917 5.92442C10.0301 5.92442 9.61669 6.07499 9.35133 6.37609C9.08602 6.67722 8.86131 7.12072 8.67789 7.70668C8.50412 8.31981 8.17489 8.62629 7.69019 8.62629C7.40424 8.62629 7.16289 8.51921 6.96649 8.3048C6.77008 8.09058 6.67188 7.85862 6.67188 7.60901C6.67188 7.09365 6.82734 6.57138 7.13892 6.04243Z" fill="#F6F5F4"/>
</g>
<defs>
<clipPath id="clip0_3031_10">
<rect width="21" height="21" fill="white"/>
</clipPath>
</defs>
</svg>
