<svg width="23" height="22" viewBox="0 0 23 22" fill="none" xmlns="http://www.w3.org/2000/svg">
<path d="M11.1666 21.8327C17.1497 21.8327 21.9999 16.9824 21.9999 10.9993C21.9999 5.01626 17.1497 0.166016 11.1666 0.166016C5.1835 0.166016 0.333252 5.01626 0.333252 10.9993C0.333252 16.9824 5.1835 21.8327 11.1666 21.8327Z" fill="#FF5C00" stroke="white" stroke-width="0.25" stroke-linecap="round" stroke-linejoin="round"/>
<path fill-rule="evenodd" clip-rule="evenodd" d="M11.1817 17.5891C10.8582 17.5891 10.5754 17.4835 10.3342 17.2727C10.0927 17.0616 9.97192 16.7665 9.97192 16.387C9.97192 16.0508 10.0885 15.7676 10.3221 15.5379C10.5557 15.3083 10.8422 15.1934 11.1817 15.1934C11.516 15.1934 11.797 15.3083 12.0254 15.5379C12.2534 15.7676 12.3676 16.0508 12.3676 16.387C12.3676 16.7612 12.2483 17.055 12.0095 17.2685C11.7707 17.4821 11.4949 17.5891 11.1817 17.5891ZM7.48736 6.32684C7.82826 5.7727 8.32593 5.31376 8.98002 4.94995C9.63374 4.58628 10.3968 4.4043 11.269 4.4043C12.0795 4.4043 12.7952 4.55644 13.4153 4.86042C14.0359 5.16455 14.5153 5.57808 14.8537 6.10093C15.1917 6.6239 15.3608 7.1922 15.3608 7.80606C15.3608 8.28921 15.2642 8.71267 15.0717 9.07638C14.8788 9.44019 14.6495 9.75415 14.3841 10.0185C14.1183 10.2827 13.6418 10.7275 12.9545 11.3527C12.7642 11.5289 12.6118 11.6839 12.4973 11.8174C12.3828 11.9509 12.2975 12.0731 12.2417 12.1839C12.1856 12.2948 12.1422 12.4056 12.1115 12.5165C12.0809 12.6274 12.0346 12.822 11.9734 13.1004C11.8669 13.6917 11.5344 13.9872 10.9755 13.9872C10.6849 13.9872 10.4402 13.8904 10.2419 13.6973C10.0432 13.5041 9.94401 13.2172 9.94401 12.8361C9.94401 12.3588 10.0166 11.9452 10.162 11.5957C10.3075 11.2462 10.5004 10.9392 10.7407 10.6749C10.9809 10.4106 11.3054 10.0966 11.7134 9.73283C12.0711 9.41458 12.3296 9.17439 12.4889 9.01243C12.6482 8.85043 12.7824 8.67008 12.8914 8.47104C13.0004 8.27215 13.0551 8.05625 13.0551 7.82311C13.0551 7.36843 12.8885 6.98478 12.556 6.67213C12.2235 6.35962 11.7943 6.20321 11.269 6.20321C10.6539 6.20321 10.2011 6.36095 9.91047 6.67639C9.61989 6.99186 9.37378 7.45648 9.17289 8.07034C8.98257 8.71267 8.62199 9.03374 8.09113 9.03374C7.77794 9.03374 7.51361 8.92157 7.2985 8.69695C7.08339 8.47252 6.97583 8.22952 6.97583 7.96802C6.97583 7.42812 7.1461 6.88098 7.48736 6.32684Z" fill="#F6F5F4"/>
</svg>
