<svg width="23" height="25" viewBox="0 0 23 25" fill="none" xmlns="http://www.w3.org/2000/svg">
<path fill-rule="evenodd" clip-rule="evenodd" d="M1.1927 8.53312C0.949113 8.72258 0.806641 9.01388 0.806641 9.32247V22.0331C0.806641 22.6696 1.05949 23.28 1.50957 23.7301C1.95964 24.1802 2.57008 24.433 3.20658 24.433H8.00684V24.4333H15.2067V24.433H20.0062C20.6427 24.433 21.2531 24.1802 21.7032 23.7301C22.1533 23.28 22.4061 22.6696 22.4061 22.0331V9.32247C22.4061 9.01388 22.2636 8.72258 22.0201 8.53312L12.2203 0.911103C11.8592 0.630239 11.3535 0.630239 10.9924 0.911103L1.1927 8.53312ZM15.2067 24.433V12.4336H8.00684V24.433H15.2067Z" fill="white"/>
</svg>
