<svg width="14" height="14" viewBox="0 0 14 14" fill="none" xmlns="http://www.w3.org/2000/svg">
<path fill-rule="evenodd" clip-rule="evenodd" d="M0.921216 4.49862C0.677629 4.68807 0.535156 4.97938 0.535156 5.28797V12.5844C0.535156 12.9598 0.684294 13.3199 0.949761 13.5853C1.21523 13.8508 1.57528 13.9999 1.9507 13.9999H4.78198V14.0003H9.02863V13.9999H11.8595C12.235 13.9999 12.595 13.8508 12.8605 13.5853C13.1259 13.3199 13.2751 12.9598 13.2751 12.5844V5.28797C13.2751 4.97938 13.1326 4.68807 12.889 4.49862L7.51906 0.321976C7.15795 0.0411123 6.65229 0.041112 6.29118 0.321976L0.921216 4.49862ZM9.02863 13.9999V6.92259H4.78198V13.9999H9.02863Z" fill="#035771"/>
</svg>
