<svg width="23" height="25" viewBox="0 0 23 25" fill="none" xmlns="http://www.w3.org/2000/svg">
<path fill-rule="evenodd" clip-rule="evenodd" d="M1.1927 8.63345C0.949113 8.8229 0.806641 9.11421 0.806641 9.4228V22.1334C0.806641 22.7699 1.05949 23.3803 1.50957 23.8304C1.95964 24.2805 2.57008 24.5333 3.20658 24.5333H8.00684V24.5336H15.2067V24.5333H20.0062C20.6427 24.5333 21.2531 24.2805 21.7032 23.8304C22.1533 23.3803 22.4061 22.7699 22.4061 22.1334V9.4228C22.4061 9.11421 22.2636 8.8229 22.0201 8.63345L12.2203 1.01143C11.8592 0.730565 11.3535 0.730565 10.9924 1.01143L1.1927 8.63345ZM15.2067 24.5333V12.5339H8.00684V24.5333H15.2067Z" fill="#FF5C00"/>
</svg>
