<svg width="18" height="18" viewBox="0 0 18 18" xmlns="http://www.w3.org/2000/svg">
    <path d="M9 0a9 9 0 1 0 0 18A9 9 0 0 0 9 0zm1.508 13.215c-.511.72-1.023 1.215-1.573 1.492a2.718 2.718 0 0 1-1.282.274c-1.163-.096-1.703-.972-1.196-2.366l1.529-4.2c.33-.906.01-1.182-.252-1.189-.311-.006-.683.286-1.116.875a.23.23 0 0 1-.377-.267c.512-.72 1.023-1.215 1.573-1.491a2.72 2.72 0 0 1 1.283-.275c1.162.097 1.703.973 1.195 2.367l-1.528 4.2c-.33.906-.01 1.181.251 1.188.311.006.684-.286 1.117-.875a.23.23 0 0 1 .376.267zm1.226-8.742a1.087 1.087 0 1 1-2.043-.743 1.087 1.087 0 0 1 2.043.743z" fill="#C1BEBE" fill-rule="nonzero"/>
</svg>
