<?xml version="1.0" encoding="UTF-8"?>
<svg width="44px" height="31px" viewBox="0 0 44 31" version="1.1" xmlns="http://www.w3.org/2000/svg" xmlns:xlink="http://www.w3.org/1999/xlink">
    <title>manage_account</title>
    <g id="final-screens-iPad" stroke="none" stroke-width="1" fill="none" fill-rule="evenodd">
        <g id="Tab_Assets" transform="translate(-611.000000, -1902.000000)" fill="#FF671F" fill-rule="nonzero">
            <path d="M646.03126,1913.50681 C646.252154,1913.50681 646.45755,1913.62038 646.574956,1913.80746 C646.694281,1913.99745 647.311565,1915.03363 647.568349,1915.55055 L647.620817,1915.66 L649.065092,1916.25824 C649.563758,1916.07264 650.938477,1915.72809 651.114606,1915.6878 C651.299139,1915.64563 651.491217,1915.6873 651.640667,1915.79843 L651.711606,1915.85972 L652.647095,1916.79517 C652.803286,1916.95136 652.868177,1917.17684 652.81901,1917.39217 C652.769688,1917.60783 652.473364,1918.77839 652.28897,1919.32687 L652.248568,1919.44168 L652.84681,1920.88592 C653.329602,1921.10678 654.544331,1921.83446 654.699355,1921.93178 C654.859706,1922.03245 654.966052,1922.19773 654.993164,1922.38201 L655,1922.47551 L655,1923.79855 C655,1924.01944 654.886431,1924.22484 654.699355,1924.34228 C654.509365,1924.4616 653.473181,1925.07889 652.956261,1925.33567 L652.84681,1925.38814 L652.248568,1926.83238 C652.434176,1927.33104 652.778721,1928.70576 652.81901,1928.88189 C652.861186,1929.06646 652.819508,1929.25849 652.70838,1929.40794 L652.647095,1929.47889 L651.711606,1930.41438 C651.555453,1930.57057 651.330007,1930.63558 651.114606,1930.5863 C650.898941,1930.53697 649.72839,1930.24065 649.179905,1930.05626 L649.065092,1930.01585 L647.620854,1930.6141 C647.399998,1931.09689 646.672312,1932.31162 646.574994,1932.46664 C646.474327,1932.62699 646.309044,1932.73334 646.124769,1932.76045 L646.03126,1932.76729 L644.708229,1932.76729 C644.487335,1932.76729 644.281939,1932.65372 644.164495,1932.46664 C644.045171,1932.27665 643.427887,1931.24047 643.171102,1930.72355 L643.118635,1930.6141 L641.674397,1930.01585 C641.308708,1930.15197 640.471898,1930.37355 639.982144,1930.49794 L639.754342,1930.55505 C639.693159,1930.57014 639.648367,1930.58092 639.624883,1930.5863 C639.440382,1930.6285 639.248308,1930.5868 639.098836,1930.47567 L639.027883,1930.41438 L638.092394,1929.47889 C637.936203,1929.3227 637.871312,1929.09722 637.920479,1928.88189 C637.969801,1928.66623 638.266125,1927.49568 638.450519,1926.94719 L638.490921,1926.83238 L637.892679,1925.38814 C637.409887,1925.16728 636.195158,1924.4396 636.040134,1924.34228 C635.879783,1924.24161 635.773438,1924.07633 635.746325,1923.89206 L635.739489,1923.79855 L635.739489,1922.47551 C635.739489,1922.25462 635.853058,1922.04923 636.040134,1921.93182 C636.230124,1921.81249 637.266308,1921.19521 637.783228,1920.93843 L637.892679,1920.88596 L638.490921,1919.44172 C638.354808,1919.07603 638.133223,1918.23922 638.008834,1917.74947 L637.951723,1917.52167 C637.936631,1917.46048 637.92585,1917.41569 637.920479,1917.39221 C637.878303,1917.20764 637.919981,1917.01561 638.031109,1916.86616 L638.092394,1916.79521 L639.027883,1915.85972 C639.184073,1915.70356 639.409557,1915.63864 639.624883,1915.6878 C639.840548,1915.73712 641.011099,1916.03345 641.559584,1916.21784 L641.674397,1916.25824 L643.118635,1915.66 C643.339491,1915.17721 644.067177,1913.96248 644.164495,1913.80746 C644.265162,1913.64711 644.430445,1913.54076 644.61472,1913.51365 L644.708229,1913.50681 L646.03126,1913.50681 Z M645.669411,1914.79083 L645.070078,1914.79083 C644.798324,1915.24823 644.360486,1916.00944 644.261475,1916.24805 C644.231295,1916.4311 644.122457,1916.59558 643.959457,1916.69375 L643.873556,1916.73709 L641.902326,1917.55359 C641.691852,1917.64075 641.458093,1917.60821 641.282228,1917.48208 C641.151809,1917.42815 640.840312,1917.33563 640.500436,1917.24137 L640.156757,1917.14789 C640.042814,1917.11745 639.931374,1917.08819 639.828092,1917.06146 L639.679994,1917.02344 L639.256187,1917.44724 C639.387362,1917.96269 639.615968,1918.81037 639.714828,1919.04948 C639.822943,1919.20025 639.862267,1919.39353 639.816431,1919.5782 L639.786341,1919.66957 L638.969838,1921.6408 C638.882677,1921.85128 638.694398,1921.99355 638.480801,1922.02872 C638.263813,1922.1188 637.614961,1922.48881 637.155159,1922.75951 L637.023511,1922.83736 L637.023511,1923.4367 C637.48091,1923.70845 638.242114,1924.14629 638.480689,1924.24534 C638.663739,1924.27552 638.828216,1924.38436 638.926386,1924.54736 L638.969725,1924.63326 L639.786228,1926.60449 C639.873389,1926.81492 639.840849,1927.04868 639.714716,1927.22458 C639.624876,1927.44195 639.427748,1928.16231 639.294095,1928.67872 L639.256075,1928.82682 L639.679881,1929.25063 C639.820477,1929.21484 639.985786,1929.17181 640.156718,1929.12615 L640.500423,1929.03268 C640.840315,1928.93842 641.151795,1928.84591 641.282152,1928.79198 C641.432894,1928.68387 641.62617,1928.64452 641.810835,1928.69037 L641.902213,1928.72047 L643.873481,1929.53697 C644.083955,1929.62414 644.226227,1929.81242 644.2614,1930.02601 C644.351478,1930.243 644.721486,1930.89185 644.992188,1931.35165 L645.07004,1931.4833 L645.669373,1931.4833 C645.941127,1931.02594 646.378965,1930.2647 646.478014,1930.02601 C646.508194,1929.84296 646.617032,1929.67848 646.780032,1929.58031 L646.865933,1929.53697 L648.837163,1928.72047 C649.047562,1928.63327 649.281396,1928.66581 649.457261,1928.79198 C649.58768,1928.84591 649.899177,1928.93843 650.239053,1929.03269 L650.582732,1929.12617 C650.696675,1929.15661 650.808115,1929.18588 650.911397,1929.21261 L651.059495,1929.25063 L651.483302,1928.82682 C651.447527,1928.68624 651.404505,1928.52095 651.358844,1928.35004 L651.265371,1928.00636 C651.17111,1927.66649 651.078585,1927.355 651.024661,1927.22458 C650.916546,1927.07381 650.877194,1926.88053 650.923046,1926.69586 L650.953148,1926.60449 L651.769651,1924.63326 C651.856813,1924.42278 652.045129,1924.28051 652.258688,1924.24534 C652.475676,1924.15526 653.124528,1923.78525 653.584387,1923.51455 L653.716054,1923.4367 L653.716054,1922.83744 C653.258654,1922.56569 652.497413,1922.12785 652.258725,1922.0288 C652.075675,1921.99862 651.911198,1921.88978 651.813027,1921.72678 L651.769689,1921.64088 L650.953186,1919.66965 C650.866025,1919.45921 650.898564,1919.22545 651.024698,1919.04955 C651.114537,1918.83219 651.311666,1918.11183 651.445318,1917.59542 L651.483339,1917.44732 L651.059533,1917.02351 C650.918936,1917.0593 650.753628,1917.10232 650.582696,1917.14798 L650.23899,1917.24146 C649.899099,1917.33571 649.587619,1917.42823 649.457261,1917.48215 C649.30652,1917.5903 649.113244,1917.6296 648.928579,1917.58376 L648.837201,1917.55366 L646.86597,1916.73716 C646.655496,1916.65 646.513225,1916.46172 646.478051,1916.24813 C646.378965,1916.00944 645.941165,1915.2482 645.669411,1914.79083 Z M645.369745,1918.93869 C647.68473,1918.93869 649.568122,1920.82204 649.568122,1923.13703 C649.568122,1925.45202 647.68473,1927.33541 645.369745,1927.33541 C643.054759,1927.33541 641.171367,1925.45205 641.171367,1923.13707 C641.171367,1920.82208 643.054759,1918.93869 645.369745,1918.93869 Z M624.318763,1902.00008 C624.604626,1902.00008 624.870431,1902.14706 625.022369,1902.38915 C625.178274,1902.63739 625.991049,1904.00186 626.317392,1904.66403 L626.375836,1904.78657 L628.244898,1905.56076 C628.472662,1905.47598 628.841651,1905.36559 629.233825,1905.25592 L629.629356,1905.14748 C629.898344,1905.07504 630.159819,1905.00702 630.376367,1904.95178 L630.612267,1904.89216 C630.751964,1904.85721 630.85333,1904.83258 630.89721,1904.82254 C631.136018,1904.76796 631.38459,1904.8219 631.577994,1904.96571 L631.669799,1905.04502 L632.880432,1906.2556 C633.082561,1906.45773 633.166538,1906.74954 633.10291,1907.02819 C633.059948,1907.21605 632.872175,1907.96373 632.681228,1908.64896 L632.567413,1909.04762 C632.507716,1909.25093 632.450596,1909.43511 632.400693,1909.57975 L632.364691,1909.68051 L633.138886,1911.54952 C633.763676,1911.83533 635.335678,1912.77704 635.536298,1912.90299 C635.748133,1913.03597 635.887138,1913.2561 635.918579,1913.50056 L635.925367,1913.60664 L635.925367,1915.3188 C635.925367,1915.60466 635.778395,1915.87047 635.536298,1916.02245 C635.288063,1916.17836 633.923596,1916.99113 633.261419,1917.31748 L633.138886,1917.37592 L632.364691,1919.24493 C632.60489,1919.89027 633.050771,1921.66931 633.10291,1921.89725 C633.15749,1922.1361 633.103554,1922.3846 632.959741,1922.57802 L632.880432,1922.66983 L631.669799,1923.88047 C631.467718,1924.0826 631.175965,1924.16672 630.89721,1924.10295 C630.709357,1924.05998 629.961676,1923.87221 629.276447,1923.68126 L628.877783,1923.56745 C628.674469,1923.50775 628.490294,1923.45063 628.34565,1923.40073 L628.244898,1923.36473 L626.375885,1924.13892 C626.09007,1924.76371 625.148359,1926.33571 625.022418,1926.53633 C624.88943,1926.74817 624.669299,1926.88717 624.424838,1926.91862 L624.318763,1926.9254 L622.606604,1926.9254 C622.320742,1926.9254 622.054936,1926.77843 621.90295,1926.53633 C621.747044,1926.2881 620.934269,1924.92363 620.607927,1924.26145 L620.549483,1924.13892 L618.68047,1923.36473 C618.035136,1923.60493 616.256088,1924.05081 616.028157,1924.10295 C615.789391,1924.15757 615.540825,1924.1036 615.347391,1923.95978 L615.255568,1923.88047 L614.044935,1922.66983 C613.842806,1922.46771 613.758829,1922.1759 613.822457,1921.89725 C613.8869,1921.61547 614.277168,1920.07407 614.515234,1919.37327 L614.560676,1919.24493 L613.786481,1917.37592 C613.161691,1917.09011 611.589689,1916.14839 611.389069,1916.02245 C611.177234,1915.88947 611.038229,1915.66933 611.006788,1915.42487 L611,1915.3188 L611,1913.60664 C611,1913.32078 611.146972,1913.05497 611.389069,1912.90303 C611.637304,1912.74713 613.001771,1911.93435 613.663948,1911.60801 L613.786481,1911.54957 L614.560676,1909.68055 C614.320478,1909.03522 613.874596,1907.25617 613.822457,1907.02824 C613.767877,1906.78939 613.821813,1906.54089 613.965626,1906.34747 L614.044935,1906.25565 L615.255568,1905.04502 C615.457697,1904.84294 615.749499,1904.75891 616.028157,1904.82254 C616.309937,1904.88698 617.85133,1905.27725 618.552138,1905.51532 L618.68047,1905.56076 L620.549483,1904.78657 C620.835297,1904.16178 621.777008,1902.58977 621.90295,1902.38915 C622.035938,1902.17732 622.256069,1902.03831 622.500529,1902.00687 L622.606604,1902.00008 L624.318763,1902.00008 Z M645.369745,1920.22275 C643.762771,1920.22275 642.455426,1921.53009 642.455426,1923.13707 C642.455426,1924.74404 643.762771,1926.05139 645.369745,1926.05139 C646.976718,1926.05139 648.284063,1924.74404 648.284063,1923.13707 C648.284063,1921.53009 646.976718,1920.22275 645.369745,1920.22275 Z M623.850487,1903.66176 L623.07488,1903.66176 C622.723199,1904.25369 622.156585,1905.23878 622.028453,1905.54757 C621.988582,1905.78939 621.842634,1906.00617 621.62433,1906.13218 L621.52644,1906.18044 L618.975436,1907.23709 C618.703058,1907.34989 618.400546,1907.30778 618.172956,1907.14454 C617.887333,1907.02645 616.930591,1906.76528 616.260479,1906.59229 L616.099477,1906.55101 L615.551022,1907.09946 C615.62937,1907.40733 615.734578,1907.80679 615.83774,1908.17813 L615.93915,1908.53567 C616.021305,1908.81842 616.09535,1909.05393 616.144557,1909.17294 C616.28447,1909.36806 616.33536,1909.61819 616.276043,1909.85717 L616.237102,1909.97542 L615.180451,1912.52643 C615.067654,1912.79881 614.823999,1912.98292 614.547581,1913.02844 C614.262452,1913.14681 613.401113,1913.63866 612.804757,1913.99024 L612.661675,1914.07492 L612.661675,1914.85052 C613.253604,1915.2022 614.238691,1915.76882 614.547435,1915.897 C614.789258,1915.93687 615.006035,1916.08282 615.132048,1916.30112 L615.180305,1916.39901 L616.236956,1918.95002 C616.349753,1919.22234 616.307643,1919.52486 616.144411,1919.7525 C616.02636,1920.03812 615.765159,1920.99486 615.592155,1921.66497 L615.550875,1921.82597 L616.099331,1922.37443 C616.766474,1922.20463 617.86358,1921.90883 618.172859,1921.78089 C618.367936,1921.64098 618.618058,1921.59006 618.857036,1921.64939 L618.97529,1921.68835 L621.526343,1922.745 C621.798721,1922.8578 621.982837,1923.10145 622.028355,1923.37787 C622.146721,1923.663 622.63858,1924.52434 622.990157,1925.1207 L623.074831,1925.26378 L623.850439,1925.26378 C624.20212,1924.6719 624.768734,1923.68676 624.896915,1923.37787 C624.936785,1923.13605 625.082734,1922.91927 625.301037,1922.79326 L625.398927,1922.745 L627.949931,1921.68835 C628.222212,1921.5755 628.524821,1921.61761 628.752411,1921.78089 C629.038034,1921.89899 629.994776,1922.16015 630.664888,1922.33315 L630.82589,1922.37443 L631.374346,1921.82597 C631.20459,1921.15893 630.908748,1920.06192 630.78081,1919.7525 C630.640897,1919.55738 630.589971,1919.30725 630.649309,1919.06827 L630.688265,1918.95002 L631.744916,1916.39901 C631.857713,1916.12663 632.101417,1915.94252 632.377786,1915.897 C632.662915,1915.77863 633.524254,1915.28677 634.120687,1914.9352 L634.26379,1914.85052 L634.26379,1914.07501 C633.671861,1913.72333 632.686725,1913.15672 632.377835,1913.02854 C632.136012,1912.98867 631.919235,1912.84272 631.793222,1912.62441 L631.744964,1912.52652 L630.688314,1909.97552 C630.575517,1909.70319 630.617627,1909.40068 630.780859,1909.17304 C630.89891,1908.88742 631.160111,1907.93068 631.333115,1907.26056 L631.374394,1907.09956 L630.825939,1906.55111 C630.158796,1906.72091 629.06169,1907.0167 628.752411,1907.14464 C628.557334,1907.2846 628.307212,1907.33546 628.068234,1907.27613 L627.94998,1907.23719 L625.398976,1906.18054 C625.126598,1906.06774 624.942481,1905.82408 624.896963,1905.54767 C624.768734,1905.23878 624.202169,1904.25364 623.850487,1903.66176 Z M623.462684,1909.02957 C626.458547,1909.02957 628.895878,1911.46686 628.895878,1914.46272 C628.895878,1917.45858 626.458547,1919.89591 623.462684,1919.89591 C620.46682,1919.89591 618.029489,1917.45863 618.029489,1914.46277 C618.029489,1911.4669 620.46682,1909.02957 623.462684,1909.02957 Z M623.462684,1910.6913 C621.383071,1910.6913 619.691213,1912.38316 619.691213,1914.46277 C619.691213,1916.54238 621.383071,1918.23424 623.462684,1918.23424 C625.542297,1918.23424 627.234154,1916.54238 627.234154,1914.46277 C627.234154,1912.38316 625.542297,1910.6913 623.462684,1910.6913 Z" id="manage_account"></path>
        </g>
    </g>
</svg>