<?xml version="1.0" encoding="UTF-8"?>
<svg width="27px" height="28px" viewBox="0 0 27 28" version="1.1" xmlns="http://www.w3.org/2000/svg" xmlns:xlink="http://www.w3.org/1999/xlink">
    <title>AC948B49-942E-4BDD-BB94-9C571B88215B</title>
    <g id="Page-1" stroke="none" stroke-width="1" fill="none" fill-rule="evenodd">
        <g id="web_assets" transform="translate(-640.000000, -876.000000)">
            <g id="Order" transform="translate(640.000000, 876.000000)">
                <g id="Layer0_0_FILL-link" fill="#FFFFFF" fill-rule="nonzero">
                    <g id="Layer0_0_FILL">
                        <path d="M6.5715942,20.966649 L4.22782609,20.966649 L4.22782609,22.2191636 L6.5715942,22.2191636 L6.5715942,20.966649 M13.3918841,21.52991 C13.3918841,21.3372155 13.3994203,21.1494618 13.4144928,20.966649 L8.45565217,20.966649 L8.45565217,22.2191636 L13.422029,22.2191636 C13.4019324,21.9918828 13.3918841,21.7621316 13.3918841,21.52991 M21.9831884,14.3483325 C22.4001932,14.4076231 22.8021256,14.5014999 23.1889855,14.6299629 L23.1889855,0 L0,0 L0,28 L17.3634783,28 C16.8208696,27.7183695 16.3109179,27.3626257 15.8336232,26.9327687 L1.2057971,26.9327687 L1.2057971,1.33403917 L21.9831884,1.33403917 L21.9831884,14.3483325 M21.2295652,18.0243515 C21.1039614,17.8909476 20.9532367,17.8242456 20.7773913,17.8242456 C20.6015459,17.8242456 20.4508213,17.8909476 20.3252174,18.0243515 C20.1996135,18.1528145 20.1368116,18.3084524 20.1368116,18.4912652 L20.1368116,20.8925357 L17.6950725,20.8925357 C17.5795169,20.8925357 17.4714976,20.9172402 17.3710145,20.966649 C17.3157488,20.9962943 17.2629952,21.033351 17.2127536,21.077819 C17.0821256,21.2013411 17.0168116,21.3495677 17.0168116,21.5224987 C17.0168116,21.6954297 17.0821256,21.8436563 17.2127536,21.9671784 C17.3484058,22.0907005 17.5091787,22.1524616 17.6950725,22.1524616 L20.1368116,22.1524616 L20.1368116,24.5537321 C20.1368116,24.7365449 20.1996135,24.8946533 20.3252174,25.0280572 C20.4508213,25.1565202 20.6015459,25.2207517 20.7773913,25.2207517 C20.9532367,25.2207517 21.1039614,25.1565202 21.2295652,25.0280572 C21.3551691,24.8946533 21.417971,24.7365449 21.417971,24.5537321 L21.417971,22.1524616 L23.8597101,22.1524616 C24.0456039,22.1524616 24.2038647,22.0907005 24.3344928,21.9671784 C24.4701449,21.8436563 24.537971,21.6954297 24.537971,21.5224987 C24.537971,21.3495677 24.4701449,21.2013411 24.3344928,21.077819 C24.2038647,20.9542968 24.0456039,20.8925357 23.8597101,20.8925357 L21.417971,20.8925357 L21.417971,18.4912652 C21.417971,18.3084524 21.3551691,18.1528145 21.2295652,18.0243515 M4.22782609,5.38062467 L4.22782609,6.63313923 L18.8330435,6.63313923 L18.8330435,5.38062467 L4.22782609,5.38062467 M8.45565217,17.3795659 L8.45565217,18.6320805 L13.9797101,18.6320805 C14.170628,18.1972825 14.4117874,17.7797777 14.7031884,17.3795659 L8.45565217,17.3795659 M4.22782609,17.3795659 L4.22782609,18.6320805 L6.5715942,18.6320805 L6.5715942,17.3795659 L4.22782609,17.3795659 M8.45565217,13.7924828 L8.45565217,15.0449974 L17.3107246,15.0449974 C17.8181643,14.6991353 18.3256039,14.4693842 18.8330435,14.3557438 L18.8330435,13.7924828 L8.45565217,13.7924828 M6.5715942,15.0449974 L6.5715942,13.7924828 L4.22782609,13.7924828 L4.22782609,15.0449974 L6.5715942,15.0449974 Z" id="Shape"></path>
                    </g>
                </g>
                <g id="Layer0_0_1_STROKES-link" transform="translate(14.959420, 16.097406)" stroke="#FFFFFF" stroke-linecap="round" stroke-linejoin="round" stroke-width="1.05507246">
                    <path d="M11.0405797,5.42509264 C11.0405797,6.92712193 10.5004831,8.20681136 9.42028986,9.26416093 C8.96309179,9.71378154 8.46570048,10.0695253 7.92811594,10.3313923 C7.90801932,10.341274 7.88792271,10.3511558 7.86782609,10.3610376 C7.73719807,10.4203282 7.60405797,10.4771484 7.4684058,10.5314981 C7.22724638,10.6154932 6.97855072,10.6846656 6.72231884,10.7390154 C6.50628019,10.7834833 6.28521739,10.8155991 6.05913043,10.8353626 C5.88328502,10.8501853 5.70492754,10.8575966 5.52405797,10.8575966 C5.34318841,10.8575966 5.167343,10.8501853 4.99652174,10.8353626 C4.79555556,10.82054 4.59961353,10.7958355 4.40869565,10.7612493 C4.4036715,10.7563085 4.39864734,10.753838 4.39362319,10.753838 C3.34357488,10.5512617 2.41661836,10.0547027 1.61275362,9.26416093 C0.708405797,8.37480148 0.18589372,7.32733369 0.0452173913,6.12175754 C0.0150724638,5.8944768 0,5.66225516 0,5.42509264 C0,5.23733898 0.0100483092,5.05205576 0.0301449275,4.86924299 C0.105507246,4.01446974 0.374299517,3.23628022 0.836521739,2.53467443 C1.05256039,2.20363508 1.31130435,1.88741839 1.61275362,1.58602435 C1.72328502,1.47732486 1.8363285,1.3760367 1.95188406,1.28215987 C2.96173913,0.427386624 4.15246377,0 5.52405797,0 C5.9410628,0 6.34048309,0.0395270866 6.72231884,0.11858126 C7.14434783,0.207517205 7.54628019,0.343391565 7.92811594,0.526204341 C8.46570048,0.783130404 8.96309179,1.13640374 9.42028986,1.58602435 C10.5004831,2.64831481 11.0405797,3.92800424 11.0405797,5.42509264 Z" id="Layer0_0_1_STROKES"></path>
                </g>
            </g>
        </g>
    </g>
</svg>