<svg width="128" height="128" viewBox="0 0 128 128" fill="none" xmlns="http://www.w3.org/2000/svg">
<circle cx="63.7231" cy="63.6488" r="63.5" fill="#0072CE"/>
<path fill-rule="evenodd" clip-rule="evenodd" d="M54.7841 30.315C54.7844 25.3448 58.8135 21.3157 63.7837 21.3154C68.7546 21.3147 72.7848 25.344 72.7851 30.315H79.5981V33.1143C79.5981 36.2439 77.0539 38.7811 73.9257 38.7811H53.5149C50.3854 38.7811 47.8481 36.2439 47.8481 33.1143V30.315H54.7841ZM67.5382 30.315C67.5376 28.2426 65.8561 26.5631 63.7837 26.5661C61.7135 26.5668 60.0354 28.2448 60.0348 30.315H67.5382ZM31.9731 38.7811C31.9731 35.8602 34.3426 33.4907 37.2636 33.4907H45.7316V34.4781C45.7316 38.0249 48.6081 40.8977 52.155 40.8977H75.2856C78.8309 40.8977 81.7147 38.0249 81.7147 34.4781V33.4907H90.1808C93.1005 33.4907 95.4731 35.8602 95.4731 38.7811V44.4725V49.5965V102.281C95.4731 105.201 93.1005 107.573 90.1808 107.573H48.077H42.953H37.2636C34.3426 107.573 31.9731 105.201 31.9731 102.281V38.7811ZM55.9628 52.6682H55.9549C55.8843 52.6653 55.8139 52.6682 55.7434 52.672C55.1946 52.7089 54.6818 52.9578 54.3134 53.3662L48.2853 59.8331L45.834 56.5627C44.1616 54.175 40.6251 56.8263 42.4483 59.1011L46.4166 64.3915C47.2073 65.4463 48.7594 65.5296 49.6585 64.5655L57.4097 56.2525C58.6796 54.9346 57.7917 52.7352 55.9628 52.6682ZM82.2443 59.9484H63.5359C62.0747 59.9484 60.8896 61.1349 60.8897 62.5946C60.8897 64.0546 62.0747 65.2407 63.5359 65.2407H82.2443C83.7041 65.2407 84.8885 64.0546 84.8885 62.5946C84.8885 61.1348 83.7041 59.9484 82.2443 59.9484ZM55.9628 68.5432H55.9549C55.8843 68.5403 55.8139 68.5432 55.7434 68.547C55.1946 68.5839 54.6818 68.8328 54.3134 69.2412L48.2853 75.708L45.834 72.4377C44.1616 70.05 40.6251 72.7013 42.4483 74.9761L46.4166 80.2684C47.2079 81.3226 48.76 81.405 49.6585 80.4405L57.4097 72.1275C58.6796 70.8096 57.7917 68.6101 55.9628 68.5432ZM82.2443 75.8234H63.5359C62.0747 75.8234 60.8896 77.0098 60.8897 78.4696C60.8897 79.9294 62.0747 81.1157 63.5359 81.1157H82.2443C83.7041 81.1157 84.8885 79.9294 84.8885 78.4696C84.8885 77.0096 83.7041 75.8234 82.2443 75.8234ZM55.9628 84.4182H55.9549C55.8843 84.4153 55.8139 84.4182 55.7434 84.422C55.1946 84.4589 54.6818 84.7078 54.3134 85.1161L48.2853 91.583L45.834 88.3127C44.1615 85.9251 40.6253 88.5763 42.4483 90.8511L46.4166 96.1433C47.2079 97.1976 48.76 97.28 49.6585 96.3155L57.4097 88.0025C58.6796 86.6846 57.7917 84.4851 55.9628 84.4182ZM82.2443 91.6984H63.5359C62.0747 91.6984 60.8896 92.8848 60.8897 94.3446C60.8897 95.8046 62.0747 96.9907 63.5359 96.9907H82.2443C83.7041 96.9907 84.8885 95.8046 84.8885 94.3446C84.8885 92.8848 83.7041 91.6984 82.2443 91.6984Z" fill="white"/>
</svg>
