<svg width="19" height="24" viewBox="0 0 19 24" fill="none" xmlns="http://www.w3.org/2000/svg">
<path fill-rule="evenodd" clip-rule="evenodd" d="M5.00702 0.712898C4.86146 0.915232 4.69044 1.15098 4.62701 1.23679C4.17432 1.84923 3.2735 3.2094 2.78101 4.0241C2.12929 5.10217 1.79518 5.71701 1.42894 6.51188C1.15442 7.10781 0.956236 7.6451 0.815208 8.17568C0.724677 8.51635 0.725932 9.44631 0.817452 9.85368C1.31101 12.0499 3.13129 13.5511 5.30083 13.5511C5.60896 13.5511 5.71273 13.5389 5.71273 13.5026C5.71273 13.476 5.67083 13.289 5.61961 13.0871C5.35434 12.0413 5.33809 10.8145 5.57634 9.81532C5.76182 9.03749 6.11306 8.23958 6.57861 7.53855C7.01452 6.88211 7.75684 6.15889 8.58323 5.5855C8.65404 5.53637 8.65009 5.52221 8.47496 5.1983C8.31179 4.89656 7.56688 3.63888 7.43806 3.44773C7.40986 3.40587 7.16598 3.0377 6.8961 2.62957C6.38492 1.85654 6.23887 1.64469 5.71543 0.917135C5.24307 0.260588 5.31712 0.281936 5.00702 0.712898ZM11.7062 5.77573C11.1488 5.84559 10.4228 6.063 9.87158 6.32515C9.05099 6.71551 8.13312 7.50194 7.62228 8.2524C7.30008 8.72576 6.95927 9.44559 6.81877 9.9495C6.49124 11.1242 6.51822 12.3836 6.8945 13.4819C7.08488 14.0376 7.52688 14.8663 7.77952 15.1411L7.8594 15.228L7.23938 15.8489L6.61937 16.4697L6.38488 16.3745C6.21166 16.3042 6.05579 16.2747 5.78869 16.2615C5.33268 16.239 5.07224 16.2925 4.67408 16.4903C4.37315 16.6397 4.2991 16.7078 2.63667 18.3614C1.68783 19.3052 0.827575 20.1887 0.724981 20.3247C0.0732672 21.189 0.160297 22.3625 0.932452 23.1217C1.60236 23.7804 2.49172 23.9246 3.35338 23.5142C3.67432 23.3613 3.69092 23.3461 5.47729 21.5665C6.49455 20.5532 7.34183 19.6775 7.42505 19.5536C7.69736 19.148 7.74744 18.9663 7.74752 18.384C7.74756 17.9382 7.73568 17.8381 7.65786 17.6276L7.56817 17.385L8.17517 16.778L8.78213 16.171L9.10065 16.3992C9.66617 16.8043 10.3951 17.126 11.1545 17.3056C11.6491 17.4227 12.6544 17.4679 13.1904 17.3972C14.7881 17.1865 16.2479 16.3173 17.1891 15.0162C17.4754 14.6204 17.8793 13.8215 18.0169 13.3787C18.3246 12.3882 18.3724 11.3365 18.155 10.3381C18.0499 9.85528 17.9492 9.56336 17.7207 9.07867C16.8994 7.33674 15.2763 6.11943 13.3605 5.80876C13.0305 5.75525 12.0292 5.73524 11.7062 5.77573ZM11.7062 7.0994C10.6593 7.29085 9.91516 7.67965 9.18166 8.41847C7.6087 10.0028 7.45614 12.5848 8.83027 14.3655C9.02751 14.6211 9.48454 15.0699 9.74646 15.2652C11.0661 16.2494 12.969 16.4143 14.4458 15.6725C15.6766 15.0544 16.5172 14.0064 16.8646 12.6568C16.9788 12.2132 17.0078 11.29 16.922 10.8302C16.7706 10.0188 16.5136 9.43703 16.0226 8.79433C15.3401 7.90093 14.3 7.28583 13.1588 7.10077C12.7406 7.03292 12.0733 7.03231 11.7062 7.0994Z" fill="white"/>
</svg>
