<svg width="49" height="49" viewBox="0 0 49 49" fill="none" xmlns="http://www.w3.org/2000/svg">
<rect x="2.74609" y="1.20703" width="44" height="44" rx="8" fill="white"/>
<g filter="url(#filter0_d_135_6325)">
<rect x="2.74609" y="1.20703" width="44" height="44" rx="8" fill="white"/>
<rect x="3.24609" y="1.70703" width="43" height="43" rx="7.5" stroke="#EAECF0"/>
</g>
<path d="M32.2453 14.875L30.5787 16.5417M30.5787 16.5417L33.0787 19.0417L30.162 21.9583L27.662 19.4583M30.5787 16.5417L27.662 19.4583M24.237 22.8833C24.6673 23.3079 25.0093 23.8134 25.2435 24.3707C25.4776 24.928 25.5992 25.5261 25.6012 26.1305C25.6032 26.735 25.4857 27.3339 25.2553 27.8928C25.0249 28.4516 24.6862 28.9594 24.2588 29.3868C23.8314 29.8142 23.3236 30.1529 22.7648 30.3833C22.2059 30.6136 21.607 30.7312 21.0025 30.7292C20.3981 30.7272 19.8 30.6056 19.2427 30.3715C18.6854 30.1373 18.1799 29.7953 17.7553 29.365C16.9205 28.5006 16.4585 27.3428 16.4689 26.1411C16.4794 24.9393 16.9614 23.7898 17.8112 22.94C18.661 22.0902 19.8105 21.6082 21.0123 21.5977C22.214 21.5873 23.3718 22.0493 24.2362 22.8842L24.237 22.8833ZM24.237 22.8833L27.662 19.4583" stroke="#3E3E3E" stroke-width="1.66667" stroke-linecap="round" stroke-linejoin="round"/>
<defs>
<filter id="filter0_d_135_6325" x="0.746094" y="0.207031" width="48" height="48" filterUnits="userSpaceOnUse" color-interpolation-filters="sRGB">
<feFlood flood-opacity="0" result="BackgroundImageFix"/>
<feColorMatrix in="SourceAlpha" type="matrix" values="0 0 0 0 0 0 0 0 0 0 0 0 0 0 0 0 0 0 127 0" result="hardAlpha"/>
<feOffset dy="1"/>
<feGaussianBlur stdDeviation="1"/>
<feColorMatrix type="matrix" values="0 0 0 0 0.0627451 0 0 0 0 0.0941176 0 0 0 0 0.156863 0 0 0 0.05 0"/>
<feBlend mode="normal" in2="BackgroundImageFix" result="effect1_dropShadow_135_6325"/>
<feBlend mode="normal" in="SourceGraphic" in2="effect1_dropShadow_135_6325" result="shape"/>
</filter>
</defs>
</svg>
