<svg width="226" height="45" viewBox="0 0 226 45" fill="none" xmlns="http://www.w3.org/2000/svg">
<path d="M212.902 31.2286L212.901 31.2302L199.632 43.6973H1.26758V0.542969H225.346V19.6456L212.902 31.2286Z" fill="#F5F5F5" stroke="#D9D9D9"/>
<path d="M199.849 19.6406H225.917L199.849 44.2351V19.6406Z" fill="#FB4C2F"/>
<path d="M199.848 44.1035V19.6406L175.037 44.1035H199.848Z" fill="#C5C5C5"/>
<rect x="12.0098" y="10.3242" width="26" height="26" rx="2" fill="#FB4C2F"/>
<path d="M16.2978 26.8242H14.7358V19.4872H18.1678C18.9378 19.4872 19.5391 19.7146 19.9718 20.1692C20.4118 20.6166 20.6318 21.1776 20.6318 21.8522C20.6318 22.5196 20.4118 23.0806 19.9718 23.5352C19.5318 23.9826 18.9304 24.2062 18.1678 24.2062H16.2978V26.8242ZM17.9478 22.8312C18.2631 22.8312 18.5234 22.7432 18.7288 22.5672C18.9341 22.3839 19.0368 22.1456 19.0368 21.8522C19.0368 21.5516 18.9341 21.3132 18.7288 21.1372C18.5234 20.9539 18.2631 20.8622 17.9478 20.8622H16.2978V22.8312H17.9478ZM24.5148 26.8242H21.6108V19.4872H24.5038C25.6551 19.4872 26.5901 19.8246 27.3088 20.4992C28.0348 21.1739 28.3978 22.0576 28.3978 23.1502C28.3978 24.2576 28.0384 25.1486 27.3198 25.8232C26.6011 26.4906 25.6661 26.8242 24.5148 26.8242ZM24.5038 25.4492C25.2078 25.4492 25.7651 25.2292 26.1758 24.7892C26.5938 24.3492 26.8028 23.8029 26.8028 23.1502C26.8028 22.4829 26.6011 21.9366 26.1978 21.5112C25.8018 21.0786 25.2408 20.8622 24.5148 20.8622H23.1728V25.4492H24.5038ZM31.0683 26.8242H29.5063V19.4872H34.6983V20.8622H31.0683V22.4022H34.6213V23.7772H31.0683V26.8242Z" fill="white"/>
</svg>
