<svg width="24" height="24" viewBox="0 0 24 24" fill="none" xmlns="http://www.w3.org/2000/svg">
<circle cx="12" cy="12" r="12" fill="#0072CE"/>
<path fill-rule="evenodd" clip-rule="evenodd" d="M13.3124 14.7217H10.6846C10.4427 14.7217 10.2466 14.9178 10.2466 15.1597C10.2466 15.4016 10.4427 15.5976 10.6846 15.5976H13.3124C13.5543 15.5976 13.7504 15.4016 13.7504 15.1597C13.7504 14.9178 13.5543 14.7217 13.3124 14.7217Z" fill="white"/>
<path fill-rule="evenodd" clip-rule="evenodd" d="M13.3124 16.0354H10.6846C10.4427 16.0354 10.2466 16.2315 10.2466 16.4734C10.2466 16.7153 10.4427 16.9114 10.6846 16.9114H13.3124C13.5543 16.9114 13.7504 16.7153 13.7504 16.4734C13.7504 16.2315 13.5543 16.0354 13.3124 16.0354Z" fill="white"/>
<path fill-rule="evenodd" clip-rule="evenodd" d="M15.5021 9.46572H17.692C17.9339 9.46572 18.13 9.66181 18.13 9.90368V15.5973C18.13 15.8392 17.9339 16.0353 17.692 16.0353H15.5021V18.2252C15.5021 18.4671 15.306 18.6632 15.0641 18.6632H8.93252C8.69062 18.6632 8.49454 18.4671 8.49454 18.2252V16.0353H6.30468C6.06279 16.0353 5.8667 15.8392 5.8667 15.5973V9.90368C5.8667 9.66181 6.06279 9.46572 6.30468 9.46572H8.49454V6.83788C8.49454 6.59599 8.69062 6.3999 8.93252 6.3999H15.0641C15.306 6.3999 15.5021 6.59599 15.5021 6.83788V9.46572ZM14.6261 7.27588H9.37043V9.46574H14.6261V7.27588ZM15.94 13.8457H14.6261V17.7874H9.37038V13.8457H8.05646C7.81457 13.8457 7.61848 13.6496 7.61848 13.4077C7.61848 13.1658 7.81459 12.9697 8.05646 12.9697H15.94C16.1819 12.9697 16.378 13.1658 16.378 13.4077C16.378 13.6496 16.1819 13.8457 15.94 13.8457ZM15.9401 12.0937H16.3781C16.62 12.0937 16.8161 11.8976 16.8161 11.6558C16.8161 11.4139 16.62 11.2178 16.3781 11.2178H15.9401C15.6982 11.2178 15.5021 11.4139 15.5021 11.6558C15.5021 11.8976 15.6982 12.0937 15.9401 12.0937Z" fill="white"/>
</svg>
