<svg width="59" height="58" viewBox="0 0 59 58" fill="none" xmlns="http://www.w3.org/2000/svg">
<g filter="url(#filter0_d_5339_11794)">
<rect x="10" y="9" width="38" height="38" rx="19" fill="#6FB0C7" fill-opacity="0.3" shape-rendering="crispEdges"/>
<path fill-rule="evenodd" clip-rule="evenodd" d="M36.3125 25.1919V25.1875C36.3125 25.1757 36.3122 25.1639 36.3114 25.1521C36.3122 25.1653 36.3126 25.1787 36.3125 25.1919L30.2003 19.0051C30.1755 19.0017 30.1504 19 30.125 19H24.5C22.9467 19 21.6875 20.2592 21.6875 21.8125V34.1875C21.6875 35.7408 22.9467 37 24.5 37H33.5C35.0533 37 36.3125 35.7408 36.3125 34.1875V25.1919ZM29.5625 22.9375C29.5625 24.4908 30.8217 25.75 32.375 25.75H35.1875V34.1875C35.1875 35.1195 34.432 35.875 33.5 35.875H24.5C23.568 35.875 22.8125 35.1195 22.8125 34.1875V21.8125C22.8125 20.8805 23.568 20.125 24.5 20.125H29.5625V22.9375ZM30.6875 20.9205L34.392 24.625H32.375C31.443 24.625 30.6875 23.8695 30.6875 22.9375V20.9205Z" fill="#035771"/>
<path d="M30.0909 19.25L36.0625 25.2946V34.1875C36.0625 35.6027 34.9152 36.75 33.5 36.75H24.5C23.0848 36.75 21.9375 35.6027 21.9375 34.1875V21.8125C21.9375 20.3973 23.0848 19.25 24.5 19.25H30.0909ZM35.4375 25.75V25.5H35.1875H32.375C30.9598 25.5 29.8125 24.3527 29.8125 22.9375V20.125V19.875H29.5625H24.5C23.43 19.875 22.5625 20.7425 22.5625 21.8125V34.1875C22.5625 35.2576 23.43 36.125 24.5 36.125H33.5C34.5701 36.125 35.4375 35.2576 35.4375 34.1875V25.75ZM30.8643 20.7437L30.4375 20.3169V20.9205V22.9375C30.4375 24.0075 31.3049 24.875 32.375 24.875H34.392H34.9956L34.5688 24.4482L30.8643 20.7437Z" stroke="#6FB0C7" stroke-opacity="0.6" stroke-width="0.5"/>
</g>
<defs>
<filter id="filter0_d_5339_11794" x="0" y="0" width="62" height="62" filterUnits="userSpaceOnUse" color-interpolation-filters="sRGB">
<feFlood flood-opacity="0" result="BackgroundImageFix"/>
<feColorMatrix in="SourceAlpha" type="matrix" values="0 0 0 0 0 0 0 0 0 0 0 0 0 0 0 0 0 0 127 0" result="hardAlpha"/>
<feOffset dx="2" dy="3"/>
<feGaussianBlur stdDeviation="6"/>
<feComposite in2="hardAlpha" operator="out"/>
<feColorMatrix type="matrix" values="0 0 0 0 0 0 0 0 0 0 0 0 0 0 0 0 0 0 0.12 0"/>
<feBlend mode="normal" in2="BackgroundImageFix" result="effect1_dropShadow_5339_11794"/>
<feBlend mode="normal" in="SourceGraphic" in2="effect1_dropShadow_5339_11794" result="shape"/>
</filter>
</defs>
</svg>
