<svg width="24" height="25" viewBox="0 0 24 25" fill="none" xmlns="http://www.w3.org/2000/svg">
<path d="M11.5223 24.1488C11.1337 24.061 10.7604 23.9402 10.4601 23.66C9.88352 23.1219 9.6635 22.4656 9.8716 21.7021C10.0889 20.9044 10.627 20.4177 11.4453 20.292C12.3487 20.1533 13.1107 20.5808 13.5019 21.4138C13.554 21.5249 13.6136 21.5557 13.729 21.5547C14.356 21.5492 14.9835 21.5585 15.6105 21.5503C16.4971 21.5389 17.2764 20.9618 17.4628 20.169C17.0781 20.2833 16.7036 20.2698 16.3329 20.1522C15.5401 19.9007 14.9965 19.1848 14.9895 18.3069C14.9754 16.5479 14.9646 14.7888 14.9917 13.0302C15.0155 11.4766 16.6163 10.5916 17.9478 11.3806C18.5662 11.747 18.8713 12.3274 18.8745 13.0384C18.8843 15.2586 18.8962 17.4794 18.8702 19.6991C18.8501 21.4105 17.4401 22.8016 15.7287 22.8444C15.0659 22.8612 14.4021 22.8455 13.7393 22.8547C13.6645 22.8558 13.5507 22.9051 13.5236 22.9637C13.2304 23.589 12.7552 23.9749 12.0783 24.1142C12.0507 24.1196 12.0257 24.1364 11.9992 24.1478C11.8393 24.1488 11.6811 24.1488 11.5223 24.1488Z" fill="white"/>
<path d="M2.01184 10.663C1.98583 5.57219 6.17758 1 11.7388 1C17.2951 0.999458 21.4912 5.56568 21.4663 10.7231C21.3167 10.6354 21.1845 10.5405 21.0392 10.4755C20.797 10.3676 20.5499 10.2674 20.2973 10.1866C20.1819 10.1498 20.138 10.1048 20.1272 9.98342C20.0139 8.73863 19.6497 7.57187 19.0168 6.49345C18.1589 5.03081 16.9699 3.91716 15.4509 3.16443C14.0213 2.45614 12.5045 2.18789 10.9194 2.33909C9.54779 2.46969 8.27861 2.91569 7.12866 3.67763C5.61778 4.67856 4.53286 6.02957 3.87225 7.71711C3.5872 8.44545 3.42463 9.20414 3.34442 9.9818C3.33792 10.0463 3.29294 10.139 3.24092 10.1612C2.83556 10.3357 2.4237 10.4966 2.01184 10.663Z" fill="white" stroke="white" stroke-width="1.5"/>
<path d="M4.59905 15.6466C4.59905 14.7958 4.59471 13.9455 4.60013 13.0947C4.60555 12.2103 5.12363 11.456 5.88557 11.2061C7.19431 10.7775 8.46403 11.6418 8.48516 13.0194C8.5128 14.785 8.51551 16.5522 8.48462 18.3178C8.45752 19.8611 6.86536 20.738 5.53765 19.9598C4.89385 19.5821 4.60555 18.9789 4.60013 18.2419C4.59417 17.377 4.59905 16.5121 4.59905 15.6466Z" fill="white"/>
<path d="M3.32127 18.8159C2.60702 18.6593 2.02337 17.8767 2.00603 17.021C1.99465 16.452 2.00278 15.8825 2.00332 15.3135C2.00332 14.9747 1.99627 14.636 2.00657 14.2973C2.03096 13.4937 2.52248 12.7962 3.24323 12.5301C3.26924 12.5204 3.29742 12.5171 3.32181 12.5117C3.32127 14.6176 3.32127 16.7176 3.32127 18.8159Z" fill="white"/>
<path d="M20.1555 18.82C20.1555 16.713 20.1555 14.619 20.1555 12.5039C20.6698 12.6779 21.06 13.0057 21.2719 13.4994C21.3878 13.7698 21.4567 14.0798 21.4648 14.3741C21.4897 15.2379 21.4783 16.1033 21.4724 16.9677C21.4659 17.8505 20.9175 18.6151 20.1555 18.82Z" fill="white"/>
</svg>
