<svg width="20" height="20" viewBox="0 0 20 20" fill="none" xmlns="http://www.w3.org/2000/svg">
<path d="M2.5 5H4.16667H17.5" stroke="#EA4335" stroke-width="1.66667" stroke-linecap="round" stroke-linejoin="round"/>
<path d="M15.8307 4.99984V16.6665C15.8307 17.1085 15.6551 17.5325 15.3426 17.845C15.03 18.1576 14.6061 18.3332 14.1641 18.3332H5.83073C5.3887 18.3332 4.96478 18.1576 4.65222 17.845C4.33966 17.5325 4.16406 17.1085 4.16406 16.6665V4.99984M6.66406 4.99984V3.33317C6.66406 2.89114 6.83966 2.46722 7.15222 2.15466C7.46478 1.8421 7.8887 1.6665 8.33073 1.6665H11.6641C12.1061 1.6665 12.53 1.8421 12.8426 2.15466C13.1551 2.46722 13.3307 2.89114 13.3307 3.33317V4.99984" stroke="#EA4335" stroke-width="1.66667" stroke-linecap="round" stroke-linejoin="round"/>
<path d="M8.33594 9.1665V14.1665" stroke="#EA4335" stroke-width="1.66667" stroke-linecap="round" stroke-linejoin="round"/>
<path d="M11.6641 9.1665V14.1665" stroke="#EA4335" stroke-width="1.66667" stroke-linecap="round" stroke-linejoin="round"/>
</svg>
