<svg width="60" height="60" viewBox="0 0 60 60" fill="none" xmlns="http://www.w3.org/2000/svg">
<g filter="url(#filter0_d)">
<rect x="6" y="2" width="48" height="48" rx="4" fill="#0072CE" fill-opacity="0.1"/>
<rect x="6" y="2" width="48" height="48" rx="4" stroke="white" stroke-width="2.5"/>
</g>
<path d="M22.2318 22.9181L12.1229 38.4512C11.4735 39.449 12.1896 40.7694 13.3801 40.7694H45.7214C46.9064 40.7694 47.6235 39.46 46.9853 38.4615L40.443 28.2259C39.9305 27.4242 38.8107 27.296 38.1304 27.9613L35.0915 30.9327C34.5086 31.5028 33.5771 31.5028 32.9941 30.9327L24.5377 22.6638C23.861 22.0021 22.748 22.1248 22.2318 22.9181Z" fill="#0072CE"/>
<circle cx="42.4627" cy="16.3069" r="5.07692" fill="#0072CE"/>
<defs>
<filter id="filter0_d" x="0.75" y="0.75" width="58.5" height="58.5" filterUnits="userSpaceOnUse" color-interpolation-filters="sRGB">
<feFlood flood-opacity="0" result="BackgroundImageFix"/>
<feColorMatrix in="SourceAlpha" type="matrix" values="0 0 0 0 0 0 0 0 0 0 0 0 0 0 0 0 0 0 127 0" result="hardAlpha"/>
<feOffset dy="4"/>
<feGaussianBlur stdDeviation="2"/>
<feColorMatrix type="matrix" values="0 0 0 0 0 0 0 0 0 0 0 0 0 0 0 0 0 0 0.05 0"/>
<feBlend mode="normal" in2="BackgroundImageFix" result="effect1_dropShadow"/>
<feBlend mode="normal" in="SourceGraphic" in2="effect1_dropShadow" result="shape"/>
</filter>
</defs>
</svg>
