<svg width="11" height="8" viewBox="0 0 11 8" fill="none" xmlns="http://www.w3.org/2000/svg">
<path d="M6.28791 0.065918H1.57198C0.703466 0.065918 0 0.769384 0 1.63789V6.35382C0 7.22233 0.703466 7.9258 1.57198 7.9258H6.28791C7.15642 7.9258 7.85988 7.22233 7.85988 6.35382V1.63789C7.85988 0.769384 7.15642 0.065918 6.28791 0.065918ZM5.30936 4.3339L3.34439 5.51288C3.28151 5.55218 3.21077 5.5679 3.14395 5.5679C3.07714 5.5679 3.01033 5.55218 2.95139 5.51681C2.82956 5.44607 2.75096 5.31638 2.75096 5.1749V2.81693C2.75096 2.67546 2.82563 2.54577 2.95139 2.47502C3.07322 2.40428 3.22649 2.40821 3.34831 2.47895L5.31328 3.65793C5.43118 3.72867 5.50584 3.85837 5.50584 3.99591C5.50584 4.13345 5.4351 4.26315 5.31328 4.33388L5.30936 4.3339Z" fill="#035771"/>
<path d="M10.7956 0.114038C10.6699 0.0472292 10.5127 0.0550891 10.3908 0.133688L8.61841 1.31659C8.63413 1.4227 8.64199 1.53275 8.64199 1.64279V6.35871C8.64199 6.46875 8.6302 6.57879 8.61841 6.68491L10.3908 7.86781C10.4577 7.91104 10.5323 7.93462 10.607 7.93462C10.6699 7.93462 10.7328 7.9189 10.7917 7.88746C10.9214 7.82065 11 7.68703 11 7.54163V0.459936C11 0.314534 10.9214 0.180904 10.7917 0.114101L10.7956 0.114038Z" fill="#035771"/>
</svg>
