<svg width="14" height="10" viewBox="0 0 14 10" fill="none" xmlns="http://www.w3.org/2000/svg">
<path d="M8.01094 0H2.01738C0.913578 0 0.0195312 0.894047 0.0195312 1.99785V7.99141C0.0195312 9.09521 0.913578 9.98926 2.01738 9.98926H8.01094C9.11474 9.98926 10.0088 9.09521 10.0088 7.99141V1.99785C10.0088 0.894047 9.11474 0 8.01094 0ZM6.76728 5.42425L4.26997 6.92264C4.19005 6.97258 4.10015 6.99256 4.01523 6.99256C3.93032 6.99256 3.84542 6.97258 3.77051 6.92763C3.61567 6.83773 3.51577 6.6729 3.51577 6.49309V3.49631C3.51577 3.31651 3.61067 3.15169 3.77051 3.06177C3.92534 2.97187 4.12013 2.97686 4.27496 3.06677L6.77227 4.56516C6.92211 4.65506 7.017 4.81989 7.017 4.99469C7.017 5.1695 6.92709 5.33433 6.77227 5.42423L6.76728 5.42425Z" fill="#035771"/>
<path d="M13.7397 0.0613397C13.5799 -0.023569 13.3801 -0.0135797 13.2253 0.0863129L10.9727 1.58969C10.9926 1.72454 11.0026 1.8644 11.0026 2.00425V7.99781C11.0026 8.13765 10.9876 8.2775 10.9727 8.41237L13.2253 9.91574C13.3102 9.97068 13.4051 10.0007 13.5 10.0007C13.5799 10.0007 13.6598 9.98067 13.7347 9.94072C13.8996 9.85581 13.9995 9.68598 13.9995 9.50119V0.500947C13.9995 0.316154 13.8996 0.14632 13.7347 0.0614196L13.7397 0.0613397Z" fill="#035771"/>
</svg>
