<svg width="26" height="26" viewBox="0 0 26 26" fill="none" xmlns="http://www.w3.org/2000/svg">
<path d="M12.8333 23.6667C18.8164 23.6667 23.6667 18.8164 23.6667 12.8333C23.6667 6.85025 18.8164 2 12.8333 2C6.85025 2 2 6.85025 2 12.8333C2 18.8164 6.85025 23.6667 12.8333 23.6667Z" fill="#0072CE" stroke="white" stroke-width="0.25" stroke-linecap="round" stroke-linejoin="round"/>
<g clip-path="url(#clip0_8280_1417)">
<path d="M15.351 14.5607C16.1248 13.7453 16.6177 12.5935 16.6177 11.494C16.6177 9.49577 14.9986 7.87573 12.9997 7.87573C11.0015 7.87573 9.38202 9.49525 9.38202 11.494C9.38202 11.9882 9.48585 12.4911 9.66603 12.9711C10.1106 13.9726 10.9833 14.7505 12.0885 15.0331C12.3075 14.7626 12.6377 14.6004 12.9998 14.6004C13.6492 14.6004 14.178 15.1287 14.178 15.7783C14.178 16.4281 13.6492 16.9559 12.9998 16.9559C12.5374 16.9559 12.1284 16.6862 11.9366 16.2835C10.9866 16.0744 10.1534 15.5975 9.50595 14.943C8.08046 15.552 7.1559 16.5219 7.1559 17.6168C7.1559 19.4613 18.8441 19.4613 18.8441 17.6168C18.8441 16.2503 17.4072 15.0777 15.351 14.5607Z" fill="white"/>
<path d="M12.2536 15.9198C12.3204 16.2722 12.6285 16.5386 12.9993 16.5386C13.4195 16.5386 13.76 16.1979 13.76 15.7782C13.76 15.3584 13.4195 15.0177 12.9998 15.0177C12.6769 15.0177 12.403 15.2196 12.2925 15.5036C10.3815 15.1674 8.92428 13.4991 8.92428 11.4934C8.92428 9.24599 10.7529 7.41747 12.9997 7.41747C15.2477 7.41747 17.0759 9.24599 17.0759 11.4934H17.4929C17.4929 9.01602 15.4773 7 12.9997 7C10.5224 7 8.50674 9.01558 8.50674 11.4934C8.50637 13.7166 10.131 15.5626 12.2536 15.9198Z" fill="white"/>
</g>
<defs>
<clipPath id="clip0_8280_1417">
<rect width="12" height="12" fill="white" transform="translate(7 7)"/>
</clipPath>
</defs>
</svg>
