<svg width="24" height="24" viewBox="0 0 24 24" fill="none" xmlns="http://www.w3.org/2000/svg">
<path fill-rule="evenodd" clip-rule="evenodd" d="M2.3999 4C2.3999 3.44772 2.84762 3 3.3999 3H9.9999C10.5522 3 10.9999 3.44772 10.9999 4V10.6C10.9999 11.1523 10.5522 11.6 9.9999 11.6H3.3999C2.84762 11.6 2.3999 11.1523 2.3999 10.6V4Z" fill="white"/>
<path fill-rule="evenodd" clip-rule="evenodd" d="M2.3999 14C2.3999 13.4477 2.84762 13 3.3999 13H9.9999C10.5522 13 10.9999 13.4477 10.9999 14V20.6C10.9999 21.1523 10.5522 21.6 9.9999 21.6H3.3999C2.84762 21.6 2.3999 21.1523 2.3999 20.6V14Z" fill="white"/>
<path fill-rule="evenodd" clip-rule="evenodd" d="M13 4C13 3.44772 13.4477 3 14 3H20.6C21.1523 3 21.6 3.44772 21.6 4V10.6C21.6 11.1523 21.1523 11.6 20.6 11.6H14C13.4477 11.6 13 11.1523 13 10.6V4Z" fill="white"/>
<path fill-rule="evenodd" clip-rule="evenodd" d="M13 14C13 13.4477 13.4477 13 14 13H20.6C21.1523 13 21.6 13.4477 21.6 14V20.6C21.6 21.1523 21.1523 21.6 20.6 21.6H14C13.4477 21.6 13 21.1523 13 20.6V14Z" fill="white"/>
</svg>
